<svg xmlns="http://www.w3.org/2000/svg" width="90" height="90" viewBox="0 0 90 90">
  <g fill="none" fill-rule="evenodd">
    <path fill="#6D6E71" d="M45.5002175,1.9997825 C69.52418,1.9997825 89.0002175,21.47582 89.0002175,45.4997825 C89.0002175,69.5248325 69.52418,88.9997825 45.5002175,88.9997825 C21.4751675,88.9997825 2.0002175,69.5248325 2.0002175,45.4997825 C2.0002175,21.47582 21.4751675,1.9997825 45.5002175,1.9997825"/>
    <path fill="#FFF" d="M11.420795,49.2986375 L10.0472825,49.878275 C9.5883575,50.0685875 9.25667,50.13275 9.25667,50.13275 L9.263195,50.17625 C9.263195,50.17625 9.60032,50.1545 10.0907825,50.2241 L11.56652,50.4535625 L11.420795,49.2986375 Z M14.4734075,53.3963375 L14.3929325,52.76015 L7.8135575,51.45515 L7.53407,49.25405 L13.5794825,46.350425 L13.500095,45.71315 L14.9018825,45.5358875 L15.31187,48.7614125 L13.9079075,48.9397625 L13.8230825,48.2698625 L12.8356325,48.6918125 L13.086845,50.6775875 L14.1493325,50.839625 L14.0645075,50.169725 L15.4673825,49.9924625 L15.8762825,53.2179875 L14.4734075,53.3963375 Z M8.08662875,37.4412987 C8.37046625,36.0558237 9.24699125,34.4811237 10.2061662,34.6779612 L11.4426537,34.9302612 L11.0935662,36.6354612 L10.5389412,36.5223612 C10.1561412,36.4440612 9.84946625,36.9693237 9.70700375,37.6620612 C9.42316625,39.0475362 10.0310787,40.0371612 11.4589662,40.3296987 C12.8868537,40.6222362 14.0983287,40.0154112 14.4071787,38.5124862 C14.5115787,38.0013612 14.5594287,37.1683362 14.1222537,37.0791612 L13.6002537,36.9714987 L13.3490412,38.1971112 L11.9635662,37.9132737 L12.5649537,34.9824612 L15.0999162,35.5022862 C16.2407037,35.7350112 16.1841537,37.9665612 15.9568662,39.0747237 C15.4772787,41.4193737 13.4316912,42.7874487 11.1403287,42.3187362 C8.85005375,41.8500237 7.59725375,39.8272737 8.08662875,37.4412987 Z M15.8663862,27.6038825 C16.1784987,27.080795 16.1132487,26.5968575 15.5053362,26.23472 C15.1964862,26.049845 14.8626237,25.95197 14.5494237,26.1575075 C14.3852112,26.262995 14.2188237,26.4554825 14.0524362,26.7360575 L13.6946487,27.333095 L15.4139862,28.3607825 L15.8663862,27.6038825 Z M16.4068737,32.23772 L16.8538362,31.4906075 L12.6017112,28.9502075 L12.1547487,29.6984075 L10.9410987,28.9719575 L12.7430862,25.954145 C13.0443237,25.4506325 13.3314237,25.01237 13.6728987,24.6959075 C14.3949987,24.0368825 15.3683112,23.8955075 16.3492362,24.48167 C17.2268487,25.005845 17.5737612,25.784495 17.5335237,26.6599325 L17.5509237,26.6708075 C17.5509237,26.6708075 17.8195362,26.476145 18.1990737,26.50007 L19.4964612,26.5772825 C19.7052612,26.5881575 19.8390237,26.4902825 19.9673487,26.276045 L20.1076362,26.0422325 L21.3223737,26.767595 L20.6633487,27.8714075 C20.3403612,28.4129825 20.0804487,28.5500075 19.6052112,28.51847 L17.5585362,28.3999325 C17.2768737,28.38362 17.1300612,28.4608325 16.9234362,28.8044825 L16.7222487,29.1416075 L17.8532487,29.8180325 L18.2708487,29.116595 L19.4866737,29.8419575 L17.6216112,32.9630825 L16.4068737,32.23772 Z M22.468925,23.5363062 L23.104025,22.9436187 L19.7295125,19.3287687 L19.0944125,19.9225437 L18.1298,18.8905062 L20.82245,16.3762062 L21.7870625,17.4082437 L21.1519625,18.0009312 L24.526475,21.6146937 L25.1626625,21.0220062 L26.1261875,22.0540437 L23.4335375,24.5683437 L22.468925,23.5363062 Z M27.0232662,16.5515112 L29.9877912,14.8539237 L30.7979787,16.2698487 L27.8334537,17.9674362 L27.0232662,16.5515112 Z M35.61071,15.2404212 L36.45026,15.0185712 L35.2202975,10.3412337 L34.32746,10.5761337 L34.60586,11.6375337 L33.028985,12.0529587 L32.3623475,9.51908375 L39.1853225,7.72362125 L39.85196,10.2574962 L38.275085,10.6718337 L37.9955975,9.61043375 L37.10276,9.84533375 L38.3327225,14.5237587 L39.1744475,14.3029962 L39.5333225,15.6699837 L35.9706725,16.6074087 L35.61071,15.2404212 Z M47.9948337,13.6841 C49.1334462,13.7721875 50.1448212,12.824975 50.2492212,11.46995 C50.3503587,10.1693 49.4934087,9.1220375 48.3547962,9.0328625 C47.2161837,8.944775 46.2080712,9.8484875 46.1080212,11.1491375 C46.0025337,12.5041625 46.8562212,13.594925 47.9948337,13.6841 Z M48.4852962,7.352675 C50.8495212,7.5364625 52.4263962,9.4026125 52.2545712,11.6254625 C52.0783962,13.9026875 50.2274712,15.5469875 47.8643337,15.3642875 C45.5011962,15.1805 43.9264962,13.27085 44.1026712,10.993625 C44.2744962,8.770775 46.1221587,7.1688875 48.4852962,7.352675 Z M57.9607925,10.7953737 L57.172355,10.4288862 L57.7672175,9.14781125 L61.1080175,10.6985862 L60.5142425,11.9807487 L59.725805,11.6142612 L58.29683,14.6897112 C58.1500175,15.0050862 58.09238,15.3128487 58.1130425,15.5510112 C58.1543675,15.9533862 58.451255,16.3187862 58.9351925,16.5438987 C59.3875925,16.7537862 59.8160675,16.7603112 60.1879925,16.5264987 C60.413105,16.3785987 60.591455,16.1502237 60.74153,15.8250612 L62.1694175,12.7496112 L61.38098,12.3831237 L61.9758425,11.1020487 L65.31773,12.6528237 L64.7228675,13.9349862 L63.93443,13.5684987 L62.5065425,16.6439487 C62.18138,17.3432112 61.648505,17.9228487 61.0732175,18.2077737 C60.2206175,18.6264612 59.1418175,18.4970487 58.2152675,18.0663987 C57.2104175,17.5998612 56.4970175,16.8375237 56.2599425,16.0077612 C56.0641925,15.3422112 56.1903425,14.6103237 56.532905,13.8708237 L57.9607925,10.7953737 Z M69.9137225,20.9657825 C70.347635,21.39317 70.83266,21.443195 71.32856,20.9396825 C71.58086,20.6830325 71.75486,20.381795 71.6297975,20.0283575 C71.5667225,19.84457 71.417735,19.637945 71.1860975,19.40957 L70.68911,18.9212825 L69.2851475,20.346995 L69.9137225,20.9657825 Z M65.2853225,20.394845 L65.9051975,21.00602 L69.377585,17.4770825 L68.75771,16.8659075 L69.7505975,15.8588825 L72.2540225,18.324245 C72.6737975,18.7364075 73.0304975,19.11812 73.2566975,19.5237575 C73.72541,20.3807075 73.6329725,21.3594575 72.831485,22.173995 C72.113735,22.90262 71.27636,23.05487 70.4357225,22.8080075 L70.4204975,22.8232325 C70.4204975,22.8232325 70.54556,23.1299075 70.4335475,23.4931325 L70.0507475,24.73397 C69.990935,24.9351575 70.05401,25.088495 70.23236,25.2635825 L70.425935,25.4549825 L69.434135,26.463095 L68.5195475,25.562645 C68.0693225,25.118945 67.9975475,24.8351075 68.1410975,24.3805325 L68.74031,22.421945 C68.82296,22.1511575 68.7827225,21.9902075 68.49671,21.708545 L68.216135,21.4334075 L67.293935,22.37192 L67.87466,22.943945 L66.88286,23.9520575 L64.2935225,21.4029575 L65.2853225,20.394845 Z M72.2948037,28.3211975 L72.7221913,29.079185 L77.0308663,26.6507975 L76.6034787,25.89281 L77.8356162,25.1978975 L79.6452163,28.4103725 L78.4130788,29.1041975 L77.9867787,28.34621 L73.6770163,30.77351 L74.1044037,31.5314975 L72.8722662,32.2253225 L71.0626662,29.0150225 L72.2948037,28.3211975 Z M77.31329,36.17273 L76.754315,36.3151925 C76.3639025,36.414155 76.26929,36.966605 76.419365,37.5571175 C76.56944,38.1465425 76.88699,38.515205 77.2882775,38.4140675 C77.867915,38.2661675 77.83529,37.3874675 77.950565,36.5152925 C78.081065,35.39408 78.3322775,34.308755 79.71449,33.956405 C81.3903275,33.530105 82.265765,34.7665925 82.60724,36.105305 C82.9345775,37.392905 82.7736275,38.7925175 81.8144525,39.0361175 L80.6965025,39.319955 L80.26694,37.6332425 L80.74109,37.51253 C81.03689,37.4374925 81.09344,36.9959675 80.9727275,36.5218175 C80.86289,36.09008 80.6399525,35.74208 80.24954,35.8410425 C79.7329775,35.97263 79.6699025,36.65123 79.60139,37.3983425 C79.49264,38.650055 79.3110275,39.9191675 77.88749,40.281305 C76.1681525,40.71848 75.1502525,39.406955 74.7848525,37.9725425 C74.4281525,36.5696675 74.7022025,35.0406425 75.9136775,34.73288 L76.8837275,34.4860175 L77.31329,36.17273 Z M77.6080025,43.7331387 L77.524265,44.5759512 L82.40714,45.4764012 L82.4930525,44.6096637 L83.89919,44.7499512 L83.5979525,47.7906012 L79.6394525,48.7095387 C79.146815,48.8248137 78.816215,48.8465637 78.816215,48.8465637 L78.8151275,48.8683137 C78.8151275,48.8683137 79.133765,48.9553137 79.5937775,49.1641137 L83.2956275,50.8421262 L82.99439,53.8827762 L81.5882525,53.7435762 L81.6730775,52.8779262 L76.70864,52.8007137 L76.6249025,53.6457012 L75.218765,53.5054137 L75.5656775,49.9993137 L76.9729025,50.1385137 L76.8967775,50.9073762 L79.6960025,50.9987262 C80.0222525,51.0096012 80.5573025,51.1281387 80.5573025,51.1281387 L80.5616525,51.0846387 C80.5616525,51.0846387 80.0722775,50.9487012 79.760165,50.7975387 L77.037065,49.5001512 L77.1969275,47.8776012 L80.1223025,47.1402762 C80.45834,47.0532762 80.965115,47.0163012 80.965115,47.0163012 L80.9683775,46.9728012 C80.9683775,46.9728012 80.421365,46.9836762 80.099465,46.9303887 L77.3361275,46.4703762 L77.2600025,47.2392387 L75.853865,47.1000387 L76.2007775,43.5939387 L77.6080025,43.7331387 Z M58.9983762,55.2889137 C58.9983762,55.2889137 58.6938762,55.4661762 58.4676762,55.9729512 C59.7683262,56.1197637 60.8775762,56.9712762 61.4626512,58.1729637 C62.9992887,58.0500762 64.1009262,59.1669387 64.4315262,60.5056512 C64.4695887,60.6579012 64.5141762,61.2375387 64.0302387,61.2375387 L52.2732762,61.2375387 C51.7164762,61.2375387 51.8165262,60.7579512 51.8730762,60.4675887 C52.1699637,58.9037637 53.3955762,57.4356387 55.0942512,57.4889262 C55.6358262,56.7668262 56.3927262,56.2480887 57.2572887,56.0447262 L56.8331637,55.7043387 C56.0044887,55.8152637 54.7462512,55.8348387 53.4042762,54.8963262 C51.4804887,53.5489137 51.2347137,50.9726262 51.2347137,50.9726262 C51.2347137,50.9726262 53.7533637,50.3038137 55.6804137,51.6479637 C56.8636137,52.4712012 57.3453762,53.5858887 57.3954012,54.4569762 C56.7961887,53.6772387 56.1937137,53.2259262 55.4041887,52.7267637 C55.3704762,52.7800512 55.1366637,53.1965637 55.1007762,53.2498512 C56.2285137,54.0002262 57.0941637,54.8452137 57.8336637,55.9055262 C58.6786512,54.5189637 59.7411387,53.2705137 61.0059012,52.3048137 C60.9591387,52.2439137 60.6742137,51.8371887 60.6296262,51.7773762 C59.1930387,52.7387262 58.3828512,54.0372012 58.1251137,54.3678012 C58.3078137,52.5473262 58.9875012,51.3499887 60.1902762,50.3821138 C62.3598387,48.6345012 65.3994012,49.2391512 65.3994012,49.2391512 C65.3994012,49.2391512 65.3080512,52.3059012 63.1352262,54.0513387 C61.6627512,55.2334512 60.0064887,55.3454637 58.9983762,55.2889137 Z M48.7441212,58.6719087 C48.7441212,60.1944087 47.7262212,61.2373212 46.2048087,61.2373212 C44.6812212,61.2373212 43.6915962,60.1944087 43.6915962,58.6719087 L43.4479962,51.1377087 L39.8744712,50.6657337 C39.2100087,49.1965212 38.5531587,47.7425337 38.1235962,46.7909712 C38.6227587,46.3842462 39.3546462,45.8361462 40.3203462,45.2401962 L44.1015837,45.8709462 L44.4941712,46.5560712 C44.9802837,47.4075837 45.7926462,48.0753087 46.9084212,48.5396712 C47.4086712,48.7495587 48.1318587,49.0301337 48.9257337,49.3313712 L48.7441212,58.6719087 Z M40.660625,59.7912725 C40.17995,60.681935 39.2479625,61.2376475 38.2365875,61.2376475 L25.557425,61.2376475 C24.0360125,61.2376475 23.030075,60.1849475 23.030075,58.6624475 C23.030075,57.1399475 24.0360125,56.175335 25.557425,56.175335 L33.2939,55.740335 C26.501375,47.3459225 27.37355,45.339485 28.3533875,43.23191 C30.6491,38.296835 36.7793375,34.53191 42.2897,33.05291 C44.8681625,32.3601725 47.068175,33.611885 47.94035,36.4404725 L50.1534125,43.20146 L56.25755,45.883235 C57.80615,46.6020725 58.06715,47.76026 57.4679375,48.9641225 C56.9002625,50.1081725 55.681175,50.1364475 54.6099875,49.672085 C54.6099875,49.672085 49.41935,47.810285 47.54015,47.0261975 C46.689725,46.6716725 46.196,46.2257975 45.9176,45.739685 C45.3205625,44.700035 43.62515,41.7474725 43.62515,41.7474725 C38.576975,43.7876225 36.1355375,46.370435 36.1355375,46.370435 C36.1355375,46.370435 39.1142,53.269535 40.3006625,55.85996 C41.1837125,57.78266 41.1413,58.898435 40.660625,59.7912725 Z M53.217335,37.9250187 C50.5170725,37.9250187 48.3268475,35.7337062 48.3268475,33.0334437 C48.3268475,30.3331812 50.5170725,28.1407812 53.217335,28.1407812 C55.9197725,28.1407812 58.1099975,30.3331812 58.1099975,33.0334437 C58.1099975,35.7337062 55.9197725,37.9250187 53.217335,37.9250187 Z M11.0680448,59.002801 C10.9964709,58.8202949 11.0863992,58.6143224 11.2689053,58.5427485 C11.4514114,58.4711746 11.6573839,58.561103 11.7289577,58.743609 C17.131619,72.5198451 30.4517406,81.768995 45.5025012,81.768995 C60.5080205,81.768995 73.7961696,72.5648043 79.2220274,58.8405758 C79.2941029,58.6582672 79.5003219,58.5689057 79.6826304,58.6409811 C79.864939,58.7130566 79.9543006,58.9192756 79.8822251,59.1015842 C74.3501387,73.0945086 60.801811,82.478915 45.5025012,82.478915 C30.1572989,82.478915 16.5764766,73.0487413 11.0680448,59.002801 Z"/>
  </g>
</svg>
