<svg xmlns="http://www.w3.org/2000/svg" width="90" height="90" viewBox="0 0 90 90">
  <g fill="none" fill-rule="evenodd">
    <path fill="#6D6E71" d="M45.0002388,4.9998806 C67.0909851,4.9998806 85.0002388,22.9091343 85.0002388,44.9998806 C85.0002388,67.0906269 67.0909851,84.9998806 45.0002388,84.9998806 C22.9082985,84.9998806 5.00023881,67.0906269 5.00023881,44.9998806 C5.00023881,22.9091343 22.9082985,4.9998806 45.0002388,4.9998806"/>
    <path stroke="#FFF" stroke-width="1.255" d="M45.0002388,9.17898507 C64.7829254,9.17898507 80.8211343,25.217194 80.8211343,44.9998806 C80.8211343,64.7837612 64.7829254,80.8207761 45.0002388,80.8207761 C25.2163582,80.8207761 9.17934328,64.7837612 9.17934328,44.9998806 C9.17934328,25.217194 25.2163582,9.17898507 45.0002388,9.17898507 Z"/>
    <path fill="#FFF" d="M60.8374925,55.4435821 C60.8374925,55.4435821 60.5031642,55.638209 60.254806,56.1946269 C61.6828657,56.3558209 62.9007761,57.2907463 63.5431642,58.6101493 C65.2303284,58.4752239 66.4398806,59.7014925 66.8028657,61.1713433 C66.8446567,61.3385075 66.8936119,61.9749254 66.3622687,61.9749254 L53.4536119,61.9749254 C52.8422687,61.9749254 52.9521194,61.4483582 53.014209,61.1295522 C53.3401791,59.4125373 54.6858507,57.800597 56.5509254,57.8591045 C57.1455522,57.0662687 57.976597,56.4967164 58.9258507,56.2734328 L58.4601791,55.8997015 C57.5503284,56.0214925 56.1688358,56.0429851 54.695403,55.0125373 C52.5831642,53.5331343 52.3133134,50.7044776 52.3133134,50.7044776 C52.3133134,50.7044776 55.0786866,49.9701493 57.1945075,51.4447761 C58.4936119,52.3498507 59.0225672,53.5737313 59.0774925,54.5301493 C58.4195821,53.6740299 57.7580896,53.1785075 56.8912239,52.6304478 C56.854209,52.6889552 56.5974925,53.1462687 56.5580896,53.2047761 C57.7962985,54.0286567 58.7467463,54.9564179 59.5586866,56.120597 C60.4864478,54.5970149 61.6530149,53.2274627 63.0416716,52.1671642 C62.9903284,52.1002985 62.6774925,51.6537313 62.6285373,51.5880597 C61.0512239,52.6435821 60.1616716,54.0692537 59.8786866,54.4322388 C60.0792836,52.4334328 60.8255522,51.118806 62.1461493,50.0561194 C64.5282388,48.1373134 67.8655522,48.801194 67.8655522,48.801194 C67.8655522,48.801194 67.7652537,52.1683582 65.3795821,54.0847761 C63.7628657,55.3826866 61.9443582,55.5056716 60.8374925,55.4435821 Z M49.5787463,59.1579701 C49.5787463,60.8296119 48.4611343,61.9746866 46.7906866,61.9746866 C45.1178507,61.9746866 44.0312836,60.8296119 44.0312836,59.1579701 L43.7638209,50.8857313 L39.8402388,50.3675224 C39.1106866,48.7543881 38.3894925,47.1579701 37.9178507,46.113194 C38.4659104,45.6666269 39.2694925,45.0648358 40.329791,44.4105075 L44.4814328,45.1030448 L44.9124776,45.8552836 C45.446209,46.790209 46.3381493,47.5233433 47.5632239,48.033194 C48.1124776,48.2636418 48.9065075,48.5717015 49.7781493,48.9024478 L49.5787463,59.1579701 Z M40.703403,60.3869851 C40.1756418,61.3648955 39.1523582,61.9750448 38.0419104,61.9750448 L24.1207164,61.9750448 C22.4502687,61.9750448 21.345791,60.8192239 21.345791,59.1475821 C21.345791,57.4759403 22.4502687,56.4168358 24.1207164,56.4168358 L32.6150448,55.9392239 C25.1571343,46.7225075 26.1147463,44.5195224 27.1905672,42.2054925 C29.7111642,36.7869851 36.4419104,32.6532537 42.4920597,31.0293731 C45.3231045,30.2687761 47.7386269,31.6431045 48.6962388,34.7487761 L51.1260896,42.1720597 L57.8281791,45.1165373 C59.5284776,45.905791 59.8150448,47.1774328 59.1571343,48.4992239 C58.5338507,49.7541493 57.1953433,49.7863881 56.0192239,49.2765373 C56.0192239,49.2765373 50.3201194,47.2323582 48.2568358,46.3714627 C47.3231045,45.982209 46.7810149,45.4926567 46.4753433,44.9589254 C45.8198209,43.8174328 43.9583284,40.5756418 43.9583284,40.5756418 C38.4156418,42.8156418 35.7350448,45.6514627 35.7350448,45.6514627 C35.7350448,45.6514627 39.0054925,53.2263881 40.3081791,56.0705672 C41.2777313,58.1816119 41.2311642,59.4066866 40.703403,60.3869851 Z M54.4900299,36.3787463 C51.5252537,36.3787463 49.1204776,33.9727761 49.1204776,31.008 C49.1204776,28.0432239 51.5252537,25.6360597 54.4900299,25.6360597 C57.457194,25.6360597 59.8619701,28.0432239 59.8619701,31.008 C59.8619701,33.9727761 57.457194,36.3787463 54.4900299,36.3787463 Z"/>
  </g>
</svg>
