<svg xmlns="http://www.w3.org/2000/svg" width="90" height="90" viewBox="0 0 90 90">
  <g fill="none" fill-rule="evenodd">
    <path fill="#6D6E71" d="M45.5002175,1.9997825 C69.52418,1.9997825 89.0002175,21.47582 89.0002175,45.4997825 C89.0002175,69.5248325 69.52418,88.9997825 45.5002175,88.9997825 C21.4751675,88.9997825 2.0002175,69.5248325 2.0002175,45.4997825 C2.0002175,21.47582 21.4751675,1.9997825 45.5002175,1.9997825"/>
    <path fill="#FFF" d="M9.4056575,33.7194387 C9.6688325,32.8907637 10.5453575,31.0507137 11.64047,31.3987137 L12.717095,31.7401887 L12.234245,33.2637762 L11.71007,33.0973887 C11.329445,32.9766762 11.003195,33.6389637 10.8585575,34.0957137 C10.5083825,35.2006137 10.9781825,36.1989387 12.24512,36.6002262 C13.65452,37.0482762 14.7104825,36.4599387 15.0693575,35.3267637 C15.166145,35.0222637 15.353195,34.1696637 14.9432075,34.0391637 L14.42012,33.8727762 L14.90297,32.3491887 L15.9980825,32.6961012 C17.036645,33.0256137 16.758245,34.9602762 16.4591825,35.9031387 C15.7979825,37.9889637 13.77197,39.0242637 11.781845,38.3924262 C9.7427825,37.7464512 8.77382,35.7106512 9.4056575,33.7194387 Z M18.2049462,28.5612087 L18.6856212,27.9217587 L15.0468462,25.1877837 L14.5661712,25.8283212 L13.5265212,25.0474962 L16.8357837,20.6398587 L18.5235837,21.9078837 L17.6220462,23.1073962 L17.0543712,22.6810962 L16.2017712,23.8164462 L17.3610462,24.6875337 L18.6171087,23.0160462 L19.7361462,23.8566837 L18.4811712,25.5281712 L19.6806837,26.4297087 L20.6061462,25.1975712 L20.0384712,24.7712712 L20.9389212,23.5717587 L22.6267212,24.8397837 L19.2445962,29.3420337 L18.2049462,28.5612087 Z M26.309105,16.70126 C26.7734675,16.38806 26.9061425,15.9606725 26.5429175,15.42236 C26.3580425,15.1493975 26.1187925,14.937335 25.778405,14.9862725 C25.6011425,15.00911 25.3879925,15.10481 25.138955,15.2733725 L24.6093425,15.63116 L25.6381175,17.1547475 L26.309105,16.70126 Z M24.9529925,20.76416 L25.6163675,20.31611 L23.0716175,16.54901 L22.40933,16.9959725 L21.6817925,15.9193475 L24.3570425,14.1140975 C24.804005,13.8117725 25.212905,13.5594725 25.6185425,13.43006 C26.47658,13.16471 27.340055,13.4246225 27.927305,14.2946225 C28.4525675,15.072185 28.43843,15.8540975 28.062155,16.56641 L28.0741175,16.5827225 C28.0741175,16.5827225 28.3720925,16.525085 28.6787675,16.69256 L29.7271175,17.2634975 C29.8967675,17.35376 30.045755,17.3243975 30.2360675,17.1960725 L30.44378,17.0568725 L31.17023,18.13241 L30.193655,18.7925225 C29.71298,19.1165975 29.4443675,19.1296475 29.06048,18.9186725 L27.4063925,18.0225725 C27.1780175,17.8985975 27.0257675,17.9051225 26.7190925,18.1117475 L26.422205,18.312935 L27.09863,19.31561 L27.718505,18.895835 L28.4460425,19.97246 L25.68053,21.840785 L24.9529925,20.76416 Z M35.7908,14.9574537 L36.5640125,14.7562662 L35.449325,10.4519412 L34.627175,10.6650912 L34.8805625,11.6416662 L33.42875,12.0179412 L32.8251875,9.68634125 L39.103325,8.06052875 L39.707975,10.3910412 L38.25725,10.7673163 L38.0038625,9.79074125 L37.180625,10.0028037 L38.2964,14.3082163 L39.0707,14.1081162 L39.3958625,15.3652662 L36.1159625,16.2146038 L35.7908,14.9574537 Z M45.1486287,13.4621412 L45.9479412,13.4947662 L46.1371662,8.95010375 L45.3378537,8.91639125 L45.3911412,7.61791625 L48.7776162,7.75820375 L48.7243287,9.05776625 L47.9250162,9.02405375 L47.7357912,13.5698037 L48.5351037,13.6024287 L48.4807287,14.9009037 L45.0953412,14.7606162 L45.1486287,13.4621412 Z M53.3048787,14.3568275 L54.0628662,14.6113025 L55.5125037,10.3004525 L54.7545162,10.0459775 L55.1688537,8.81384 L60.2192037,10.512515 L59.5471287,12.51134 L58.1257662,12.0339275 L58.3204287,11.4553775 L57.1448412,11.060615 L56.6511162,12.52874 L58.6412412,13.19864 L58.1953662,14.5243025 L56.2052412,13.85549 L55.7593662,15.18224 L56.6119662,15.4682525 L56.1976287,16.70039 L52.8905412,15.588965 L53.3048787,14.3568275 Z M62.4169325,18.2815062 L63.072695,18.7393438 L65.6772575,15.0103063 L65.021495,14.5513812 L65.7664325,13.4856313 L68.544995,15.4268187 L67.801145,16.4925688 L67.1453825,16.0347312 L64.5397325,19.7648562 L65.195495,20.2226937 L64.451645,21.2884437 L61.671995,19.3472563 L62.4169325,18.2815062 Z M68.8098012,23.4025437 L69.3078762,24.0289437 L72.8705262,21.1981812 L72.3735387,20.5706937 L73.3914388,19.7626812 L76.8203263,24.0778812 L75.1673262,25.3915812 L74.2342513,24.2159937 L74.7910512,23.7744687 L73.9069137,22.6619562 L72.7715637,23.5645812 L74.0711263,25.2012687 L72.9749262,26.0723562 L71.6742762,24.4356687 L70.4997762,25.3687437 L71.4578638,26.5747812 L72.0135762,26.1332562 L72.9477387,27.3077562 L71.2947387,28.6214562 L67.7908137,24.2116437 L68.8098012,23.4025437 Z M75.7744775,34.813355 C75.9158525,35.2298675 76.06919,35.5256675 76.314965,35.7801425 C76.80434,36.257555 77.59169,36.3695675 78.489965,36.0628925 C79.49264,35.7214175 80.003765,35.0841425 80.0570525,34.369655 C80.0788025,34.0336175 80.0048525,33.7530425 79.8895775,33.412655 L79.721015,32.921105 L75.6070025,34.321805 L75.7744775,34.813355 Z M74.679365,31.9042925 L74.936015,32.6611925 L79.24034,31.1952425 L78.9826025,30.43943 L80.212565,30.0207425 L81.226115,33.0004925 C81.4033775,33.5203175 81.534965,33.97163 81.5578025,34.4381675 C81.6361025,35.9106425 80.7878525,37.23413 79.0957025,37.8094175 C77.54384,38.3379425 76.119215,37.9355675 75.2437775,36.85133 C74.896865,36.42068 74.6761025,35.9258675 74.466215,35.31143 L73.4494025,32.3218925 L74.679365,31.9042925 Z M12.9384012,62.0831787 C13.4005887,62.9890662 14.5892262,63.3185787 15.6680262,62.7683037 C16.7033262,62.2408662 17.1024387,61.1033412 16.6402512,60.1974537 C16.1780637,59.2904787 15.0231387,58.9446537 13.9878387,59.4720912 C12.9101262,60.0212787 12.4773012,61.1772912 12.9384012,62.0831787 Z M17.9778762,59.5155912 C18.9359637,61.3969662 18.2508387,63.4632162 16.4814762,64.3647537 C14.6697012,65.2880412 12.5599512,64.6453287 11.6007762,62.7650412 C10.6426887,60.8836662 11.3626137,58.7989287 13.1743887,57.8756412 C14.9437512,56.9741037 17.0187012,57.6342162 17.9778762,59.5155912 Z M23.3466462,71.4617787 C23.7566337,71.8173912 24.1916337,71.8337037 24.6037962,71.3562912 C24.8125962,71.1148662 24.9507087,70.8364662 24.8180337,70.5297912 C24.7516962,70.3699287 24.6081462,70.1948412 24.3884712,70.0045287 L23.9186712,69.5988912 L22.7528712,70.9484787 L23.3466462,71.4617787 Z M19.1989212,71.2203537 L19.7850837,71.7282162 L22.6691337,68.3906787 L22.0818837,67.8839037 L22.9062087,66.9301662 L25.2758712,68.9779287 C25.6717212,69.3194037 26.0110212,69.6391287 26.2361337,69.9871287 C26.7015837,70.7222787 26.6765712,71.5977162 26.0099337,72.3676662 C25.4139837,73.0571412 24.6788337,73.2409287 23.9164962,73.0701912 L23.9045337,73.0843287 C23.9045337,73.0843287 24.0339462,73.3496787 23.9545587,73.6791912 L23.6859462,74.8047537 C23.6446212,74.9863662 23.7087837,75.1190412 23.8773462,75.2647662 L24.0611337,75.4235412 L23.2368087,76.3772787 L22.3722462,75.6290787 C21.9459462,75.2615037 21.8665587,75.0135537 21.9666087,74.6003037 L22.3874712,72.8233287 C22.4451087,72.5786412 22.4005212,72.4372662 22.1286462,72.2034537 L21.8654712,71.9750787 L21.0976962,72.8624787 L21.6479712,73.3377162 L20.8236462,74.2914537 L18.3745962,72.1740912 L19.1989212,71.2203537 Z M35.7270725,74.7964887 C36.917885,75.2086512 38.2065725,76.1678262 37.9216475,76.9921512 L37.5540725,78.0546387 L36.0881225,77.5467762 L36.252335,77.0704512 C36.3665225,76.7409387 35.9380475,76.4081637 35.343185,76.2015387 C34.1523725,75.7904637 33.2062475,76.2113262 32.7821225,77.4391137 C32.35691,78.6669012 32.7516725,79.8076887 34.0436225,80.2557387 C34.4829725,80.4069012 35.2137725,80.5471887 35.343185,80.1720012 L35.499785,79.7228637 L34.4459975,79.3585512 L34.85816,78.1677387 L37.37681,79.0388262 L36.622085,81.2192637 C36.2838725,82.1991012 34.31876,81.8891637 33.36611,81.5596512 C31.3509725,80.8625637 30.379835,78.8952762 31.0616975,76.9258137 C31.7424725,74.9563512 33.67496,74.0863512 35.7270725,74.7964887 Z M47.6465075,79.86065 L47.229995,78.6002375 C47.0940575,78.1804625 47.060345,77.8814 47.060345,77.8814 L47.021195,77.883575 C47.021195,77.883575 47.0157575,78.183725 46.9200575,78.614375 L46.6112075,79.9085 L47.6465075,79.86065 Z M43.793495,82.27925 L44.363345,82.2520625 L45.98807,76.5057125 L47.9618825,76.4143625 L50.1107825,81.9867125 L50.68172,81.959525 L50.7393575,83.2177625 L47.847695,83.351525 L47.78897,82.094375 L48.3881825,82.0661 L48.08477,81.159125 L46.3045325,81.241775 L46.085945,82.172675 L46.686245,82.1454875 L46.7438825,83.4026375 L43.8511325,83.5364 L43.793495,82.27925 Z M57.7834212,80.2467125 L58.4848587,79.9161125 L56.6045712,75.9293375 L55.9031337,76.2599375 L55.3659087,75.121325 L57.6529212,74.042525 L61.1818587,76.4382875 C61.4504712,76.622075 61.7462712,76.9537625 61.7462712,76.9537625 L61.7810712,76.93745 C61.7810712,76.93745 61.5298587,76.5405125 61.3982712,76.2599375 L60.3977712,74.1404 L59.6626212,74.4873125 L59.1243087,73.3487 L62.1301587,71.9316875 L62.6673837,73.0703 L61.9659462,73.4009 L64.3834587,78.5262875 L62.8065837,79.2701375 L59.2776462,76.896125 C59.0079462,76.7123375 58.7121462,76.38065 58.7121462,76.38065 L58.6773462,76.3969625 C58.6773462,76.3969625 58.9285587,76.7928125 59.0612337,77.0733875 L60.0519462,79.1766125 L60.7881837,78.8297 L61.3254087,79.9683125 L58.3206462,81.385325 L57.7834212,80.2467125 Z M70.4016837,72.4520562 L70.9476088,71.9006937 L67.8145212,68.7980562 L67.2685962,69.3483312 L66.3735837,68.4620187 L68.6856087,66.1282437 L69.5806212,67.0145562 L69.0346962,67.5648312 L72.1688712,70.6685562 L72.7137087,70.1171937 L73.6087212,71.0035062 L71.2966962,73.3383687 L70.4016837,72.4520562 Z M73.5197637,58.48562 C73.8819012,57.7254575 74.9683137,56.0746325 75.9742512,56.55422 L76.9627888,57.0251075 L76.2961512,58.4236325 L75.8154763,58.19417 C75.4653012,58.02887 75.0651013,58.6215575 74.8650012,59.040245 C74.3821513,60.0548825 74.6997012,61.076045 75.8633262,61.6295825 C77.1574512,62.246195 78.2503887,61.82207 78.7462888,60.7813325 C78.8789637,60.501845 79.1715012,59.70797 78.7952262,59.5285325 L78.3145513,59.3001575 L78.9801013,57.900545 L79.9860387,58.379045 C80.9397763,58.83362 80.4156012,60.654095 80.0034388,61.5208325 C79.0910263,63.4348325 77.0084637,64.160195 75.1803762,63.2891075 C73.3087887,62.398445 72.6497638,60.3137075 73.5197637,58.48562 Z M82.3933421,41.8174348 C82.356625,41.5437443 82.5487298,41.2921092 82.8224202,41.2553921 C83.0961107,41.218675 83.3477458,41.4107798 83.3844629,41.6844702 C83.5791139,43.1354033 83.6911739,44.587227 83.718332,46.0429054 C83.7630479,48.4968236 83.5696807,50.9263435 83.145153,53.3074873 C83.0966846,53.5793428 82.8370107,53.7604339 82.5651552,53.7119655 C82.2932997,53.6634971 82.1122086,53.4038232 82.160677,53.1319677 C82.5738258,50.8146476 82.7620288,48.4500113 82.718502,46.0613417 C82.6920678,44.6444678 82.5829525,43.2307953 82.3933421,41.8174348 Z M10.8674566,53.7186245 C10.920577,53.9896094 10.7439629,54.2523487 10.472978,54.3054691 C10.2019931,54.3585895 9.93925379,54.1819754 9.88613338,53.9109905 C9.46668926,51.7712663 9.23414203,49.6042236 9.19392946,47.4088346 C9.16629996,45.9057902 9.22741649,44.4165935 9.37699103,42.9615411 C9.40522875,42.6868463 9.65080409,42.4870533 9.9254989,42.515291 C10.2001937,42.5435287 10.3999867,42.7891041 10.371749,43.0637989 C10.2263289,44.4784364 10.1668654,45.9273569 10.1937611,47.3904881 C10.2328978,49.527139 10.4591966,51.635954 10.8674566,53.7186245 Z M63.686045,48.2838913 C62.402795,52.3174288 60.5507825,55.9246663 58.1822075,59.0273038 C55.20137,62.9075038 51.397295,65.9775163 46.8917825,68.1362038 L46.22297,68.4439663 L45.5650325,68.1362038 C41.048645,65.9775163 37.255445,62.9075038 34.27352,59.0273038 C31.9060325,55.9246663 30.0529325,52.3174288 28.77077,48.2838913 C26.589245,41.4435163 26.7969575,35.7983038 26.8078325,35.5557913 L26.863295,34.2301288 L28.1889575,34.0985413 C33.2545325,33.5830663 37.6067075,31.6864663 40.3689575,30.1955038 C43.3835075,28.5620788 45.2148575,27.0276163 45.2366075,27.0058663 L46.22297,26.1728413 L47.2202075,27.0058663 C47.2310825,27.0276163 49.0624325,28.5620788 52.0878575,30.1955038 C54.8501075,31.6864663 59.2022825,33.5830663 64.26677,34.0985413 L65.582645,34.2301288 L65.63702,35.5557913 C65.647895,35.7983038 65.86757,41.4435163 63.686045,48.2838913 Z M54.593675,39.0821188 L52.157675,41.5181188 L43.079225,50.5965688 L38.4791,45.9953563 L37.8527,45.3700438 L36.6183875,46.6043563 L35.384075,47.8386688 L43.079225,55.5338188 L57.0623,41.5518313 L54.593675,39.0821188 Z"/>
  </g>
</svg>
