<svg xmlns="http://www.w3.org/2000/svg" width="90" height="90" viewBox="0 0 90 90">
  <g fill="none" fill-rule="evenodd">
    <path fill="#6D6E71" d="M45,5 C67.0907463,5 85,22.9092537 85,45 C85,67.0907463 67.0907463,85 45,85 C22.9080597,85 5,67.0907463 5,45 C5,22.9092537 22.9080597,5 45,5"/>
    <path stroke="#FFF" stroke-width="1.255" d="M45.0002388,9.17898507 C64.7829254,9.17898507 80.8211343,25.217194 80.8211343,44.9998806 C80.8211343,64.7837612 64.7829254,80.8207761 45.0002388,80.8207761 C25.2163582,80.8207761 9.17934328,64.7837612 9.17934328,44.9998806 C9.17934328,25.217194 25.2163582,9.17898507 45.0002388,9.17898507 Z"/>
    <path fill="#FFF" d="M64.1734925,47.2655522 C62.7645373,51.694209 60.7311045,55.654806 58.1305075,59.0601791 C54.8576716,63.3216716 50.6809552,66.6924179 45.7340896,69.0625672 L44.9997612,69.4004776 L44.2773731,69.0625672 C39.3185672,66.6924179 35.153791,63.3216716 31.8797612,59.0601791 C29.2803582,55.654806 27.2457313,51.694209 25.8379701,47.2655522 C23.4427463,39.7539104 23.670806,33.5557015 23.6827463,33.2906269 L23.7436418,31.8351045 L25.1991642,31.6906269 C30.7609552,31.1246567 35.5394627,29.0422687 38.5722985,27.4052537 C41.8821493,25.6118209 43.8928955,23.9270448 43.9167761,23.9031642 L44.9997612,22.9873433 L46.0946866,23.9031642 C46.1066269,23.9270448 48.1173731,25.6118209 51.4391642,27.4052537 C54.472,29.0422687 59.2505075,31.1246567 64.8111045,31.6906269 L66.2558806,31.8351045 L66.3155821,33.2906269 C66.3275224,33.5557015 66.5687164,39.7539104 64.1734925,47.2655522 Z M54.1904478,37.1622687 L51.5158209,39.8368955 L41.5480597,49.8034627 L36.4973134,44.7527164 L35.8095522,44.0661493 L34.4543284,45.4213731 L33.0991045,46.776597 L41.5480597,55.2255522 L56.9008955,39.8739104 L54.1904478,37.1622687 Z"/>
  </g>
</svg>
