<svg xmlns="http://www.w3.org/2000/svg" width="90" height="90" viewBox="0 0 90 90">
  <g fill="none" fill-rule="evenodd">
    <path fill="#6D6E71" d="M45.0002388,4.9998806 C67.0909851,4.9998806 85.0002388,22.9091343 85.0002388,44.9998806 C85.0002388,67.0906269 67.0909851,84.9998806 45.0002388,84.9998806 C22.9082985,84.9998806 5.00023881,67.0906269 5.00023881,44.9998806 C5.00023881,22.9091343 22.9082985,4.9998806 45.0002388,4.9998806"/>
    <path stroke="#FFF" stroke-width="1.255" d="M45.0002388,9.17898507 C64.7829254,9.17898507 80.8211343,25.217194 80.8211343,44.9998806 C80.8211343,64.7837612 64.7829254,80.8207761 45.0002388,80.8207761 C25.2163582,80.8207761 9.17934328,64.7837612 9.17934328,44.9998806 C9.17934328,25.217194 25.2163582,9.17898507 45.0002388,9.17898507 Z"/>
    <path fill="#FFF" d="M69.4358209,52.2579104 L69.4358209,49.0985075 C69.4358209,44.4644776 65.8549254,40.4620896 61.0095522,40.040597 L60.5880597,40.040597 C59.5349254,40.6722388 58.2716418,40.8823881 57.0071642,40.8823881 C55.7438806,40.8823881 54.6895522,40.6722388 53.6376119,40.040597 C53.0047761,42.5683582 51.1086567,44.6746269 48.7910448,45.7277612 C53.6376119,46.359403 57.2185075,50.361791 57.2185075,55.2071642 L57.2185075,58.3677612 C59.3247761,58.3677612 61.4310448,58.3677612 63.3271642,57.9462687 C65.2232836,57.7349254 67.119403,57.1032836 69.0143284,56.2602985 C69.2256716,56.2602985 69.4358209,55.84 69.4358209,55.6286567 L69.4358209,52.2579104 Z M40.7862687,45.9391045 C38.4698507,44.6746269 36.5737313,42.5683582 35.9420896,40.040597 L35.520597,40.040597 C34.4674627,40.6722388 33.2029851,41.0937313 31.7283582,41.0937313 C30.4650746,41.0937313 29.200597,40.6722388 28.1474627,40.2507463 C26.4626866,40.4620896 24.9880597,41.0937313 23.7235821,42.1468657 C21.8274627,43.6214925 20.5641791,46.1492537 20.5641791,48.4668657 L20.5641791,56.2602985 C20.5641791,56.4716418 20.7743284,56.681791 20.9844776,56.681791 C23.7235821,57.5247761 26.4626866,58.1564179 29.200597,58.3677612 C30.2537313,58.5779104 31.518209,58.5779104 32.5713433,58.5779104 L32.5713433,54.5755224 C32.7814925,50.1516418 36.3635821,46.359403 40.7862687,45.9391045 Z M57.0071642,25.7158209 C53.8477612,25.7158209 51.32,27.8220896 50.2668657,30.561194 C52.3731343,32.2459701 53.8477612,34.7737313 53.8477612,37.7229851 C53.8477612,38.1444776 53.8477612,38.5659701 53.6376119,38.9862687 C54.6895522,39.4077612 55.7438806,39.8292537 56.7970149,39.8292537 C60.5880597,39.8292537 63.958806,36.6698507 63.958806,32.6674627 C63.958806,28.6650746 61.0095522,25.7158209 57.0071642,25.7158209 Z M35.7307463,37.7229851 C35.7307463,35.1952239 36.7838806,32.6674627 38.68,30.9814925 C37.838209,27.8220896 35.0991045,25.5044776 31.9397015,25.5044776 C28.1474627,25.5044776 24.7767164,28.6650746 24.7767164,32.6674627 C24.7767164,36.6698507 27.9373134,39.8292537 31.9397015,39.8292537 C33.4143284,39.8292537 34.8877612,39.4077612 35.9420896,38.5659701 C35.7307463,38.3546269 35.7307463,38.1444776 35.7307463,37.7229851 Z M44.7886567,29.9283582 C40.3659701,29.9283582 36.9952239,33.5092537 36.9952239,37.7229851 C36.9952239,42.1468657 40.5761194,45.5164179 44.7886567,45.5164179 C49.0023881,45.5164179 52.5832836,41.9355224 52.5832836,37.7229851 C52.7934328,33.5092537 49.2125373,29.9283582 44.7886567,29.9283582 Z M56.1116418,62.3701493 C54.4650746,63.2119403 52.6131343,63.8447761 50.76,64.0549254 C47.6734328,64.4764179 44.5856716,64.6865672 41.4991045,64.2650746 C38.8232836,63.8447761 36.3528358,63.4232836 33.6770149,62.5802985 L33.6770149,54.7856716 C34.0889552,50.5731343 37.3820896,47.2023881 41.7044776,46.9910448 L48.4961194,46.9910448 C52.8185075,47.2023881 56.1116418,50.9934328 56.1116418,55.4173134 L56.1116418,58.5779104 L56.1116418,60.2626866 L56.1116418,62.3701493 Z"/>
  </g>
</svg>
