<svg xmlns="http://www.w3.org/2000/svg" width="90" height="90" viewBox="0 0 90 90">
  <g fill="none" fill-rule="evenodd">
    <path fill="#6D6E71" d="M45.5002175,1.9997825 C69.52418,1.9997825 89.0002175,21.47582 89.0002175,45.4997825 C89.0002175,69.5248325 69.52418,88.9997825 45.5002175,88.9997825 C21.4751675,88.9997825 2.0002175,69.5248325 2.0002175,45.4997825 C2.0002175,21.47582 21.4751675,1.9997825 45.5002175,1.9997825"/>
    <path fill="#FFF" d="M68.11739,53.3576225 L68.11739,56.427635 C68.11739,56.619035 67.92599,57.0029225 67.7335025,57.0029225 C66.00764,57.7706975 64.28069,58.345985 62.55374,58.537385 C60.82679,58.9212725 58.90844,58.9212725 56.99009,58.9212725 L56.99009,56.0437475 C56.99009,51.6306725 53.7286775,47.9853725 49.314515,47.410085 C51.4253525,46.4498225 53.1523025,44.5314725 53.7286775,42.229235 C54.686765,42.8045225 55.6470275,42.99701 56.7976025,42.99701 C57.949265,42.99701 59.09984,42.8045225 60.059015,42.229235 L60.4429025,42.229235 C64.8559775,42.6131225 68.11739,46.2584225 68.11739,50.4800975 L68.11739,53.3576225 Z M42.023915,47.601485 C37.995815,47.9853725 34.733315,51.438185 34.541915,55.4673725 L34.541915,59.1126725 C33.58274,59.1126725 32.4310775,59.1126725 31.4719025,58.9212725 C28.978265,58.728785 26.48354,58.154585 23.988815,57.38681 C23.797415,57.38681 23.606015,57.1943225 23.606015,57.0029225 L23.606015,49.9037225 C23.606015,47.792885 24.75659,45.491735 26.48354,44.147585 C27.6352025,43.18841 28.978265,42.6131225 30.5127275,42.4217225 C31.4719025,42.8045225 32.623565,43.18841 33.77414,43.18841 C35.1172025,43.18841 36.268865,42.8045225 37.22804,42.229235 L37.6119275,42.229235 C38.187215,44.5314725 39.914165,46.4498225 42.023915,47.601485 Z M56.7976025,29.183585 C60.4429025,29.183585 63.1290275,31.8686225 63.1290275,35.5139225 C63.1290275,39.1592225 60.059015,42.037835 56.6062025,42.037835 C55.6470275,42.037835 54.686765,41.6539475 53.7286775,41.27006 C53.9200775,40.8861725 53.9200775,40.502285 53.9200775,40.119485 C53.9200775,37.4322725 52.577015,35.130035 50.658665,33.5955725 C51.61784,31.101935 53.9200775,29.183585 56.7976025,29.183585 Z M37.41944,40.119485 C37.41944,40.502285 37.41944,40.6947725 37.6119275,40.8861725 C36.651665,41.6539475 35.30969,42.037835 33.9666275,42.037835 C30.3213275,42.037835 27.442715,39.1592225 27.442715,35.5139225 C27.442715,31.8686225 30.5127275,28.9910975 33.9666275,28.9910975 C36.8441525,28.9910975 39.3388775,31.101935 40.105565,33.97946 C38.378615,35.5139225 37.41944,37.81616 37.41944,40.119485 Z M45.669215,33.020285 C49.6984025,33.020285 52.959815,36.2816975 52.768415,40.119485 C52.768415,43.956185 49.5070025,47.2175975 45.669215,47.2175975 C41.832515,47.2175975 38.5711025,44.147585 38.5711025,40.119485 C38.5711025,36.2816975 41.641115,33.020285 45.669215,33.020285 Z M55.9819775,62.5665725 C54.482315,63.3343475 52.7956025,63.909635 51.1078025,64.101035 C48.296615,64.4849225 45.48434,64.67741 42.6731525,64.2935225 C40.236065,63.909635 37.9860275,63.5257475 35.54894,62.75906 L35.54894,55.65986 C35.9241275,51.8220725 38.9234525,48.7531475 42.8602025,48.56066 L49.0459025,48.56066 C52.9826525,48.7531475 55.9819775,52.20596 55.9819775,56.2351475 L55.9819775,59.1126725 L55.9819775,60.6482225 L55.9819775,62.5665725 Z M32.6047512,10.6089762 C33.5019387,10.2696762 35.6943387,9.76507625 36.1369512,10.9352262 L36.5697762,12.0836262 L34.9189512,12.7089387 L34.7079762,12.1499637 C34.5535512,11.7432387 33.7585887,11.9161512 33.2626887,12.1042887 C32.0653512,12.5577762 31.5172512,13.6365762 32.0283762,14.9894262 C32.5960512,16.4956137 33.8238387,16.9958637 35.0516262,16.5304137 C35.3811387,16.4053512 36.2489637,15.9844887 36.0836637,15.5473137 L35.8726887,14.9872512 L37.5235137,14.3619387 L37.9650387,15.5320887 C38.3837262,16.6402512 36.5154012,17.7201387 35.4931512,18.1072887 C33.2333262,18.9620637 30.9593637,17.9398137 30.1578762,15.8137512 C29.3357262,13.6365762 30.4471512,11.4256887 32.6047512,10.6089762 Z M44.202395,13.4472425 L44.215445,14.0236175 C44.2252325,14.424905 44.7494075,14.64023 45.3671075,14.625005 C45.985895,14.60978 46.4219825,14.3803175 46.412195,13.968155 C46.3980575,13.37003 45.5215325,13.206905 44.6863325,12.902405 C43.606445,12.5272175 42.59072,12.0421925 42.55592,10.618655 C42.514595,8.8906175 43.9359575,8.31098 45.3366575,8.2750925 C46.6829825,8.24138 48.030395,8.7079175 48.05432,9.696455 L48.0815075,10.8481175 L46.3154075,10.892705 L46.3045325,10.4044175 C46.29692,10.09883 45.8738825,9.94658 45.3779825,9.95963 C44.9255825,9.9715925 44.53082,10.11188 44.5406075,10.5131675 C44.5536575,11.0460425 45.20942,11.258105 45.9326075,11.4897425 C47.1462575,11.8725425 48.3599075,12.3314675 48.3947075,13.798505 C48.43712,15.5700425 46.9091825,16.27148 45.407345,16.3095425 C43.941395,16.3465175 42.4917575,15.74078 42.4613075,14.4912425 L42.4373825,13.49183 L44.202395,13.4472425 Z M57.5955013,14.2840737 L57.6727137,12.7941987 C57.7020762,12.2993862 57.7901638,11.9731362 57.7901638,11.9731362 L57.7477513,11.9589987 C57.7477513,11.9589987 57.6183387,12.2711112 57.3388513,12.6800112 L56.4786388,13.9023612 L57.5955013,14.2840737 Z M52.5168763,15.2040987 L53.1324013,15.4150737 L57.2214013,10.0917612 L59.3496388,10.8171237 L59.3300638,17.5280862 L59.9466763,17.7379737 L59.4899263,19.0755987 L56.3698888,18.0109362 L56.8266388,16.6743987 L57.4737012,16.8951612 L57.5248138,15.8217987 L55.6042888,15.1671237 L54.9898513,16.0479987 L55.6369137,16.2687612 L55.1801638,17.6052987 L52.0601263,16.5417237 L52.5168763,15.2040987 Z M70.7104498,18.6137554 C70.4735594,18.3910029 70.4620984,18.0183888 70.6848509,17.7814985 C70.9076033,17.5446082 71.2802174,17.5331472 71.5171077,17.7558996 C79.0116816,24.8031891 83.3453265,34.603651 83.3453265,45.086315 C83.3453265,65.7960518 66.566482,82.5783128 45.8642037,82.5783128 C25.1527585,82.5783128 8.37220595,65.7977602 8.37220595,45.086315 C8.37220595,34.5507876 12.7446183,24.7149798 20.3058117,17.6734834 C20.5437741,17.4518766 20.9163286,17.4651355 21.1379354,17.7030979 C21.3595421,17.9410604 21.3462832,18.3136148 21.1083208,18.5352216 C13.7839211,25.3561997 9.54975155,34.8810281 9.54975155,45.086315 C9.54975155,65.1474198 25.803099,81.4007672 45.8642037,81.4007672 C65.9160879,81.4007672 82.1677809,65.145765 82.1677809,45.086315 C82.1677809,34.9321104 77.9708668,25.4408628 70.7104498,18.6137554 Z"/>
  </g>
</svg>
