<svg xmlns="http://www.w3.org/2000/svg" width="90" height="90" viewBox="0 0 90 90">
  <g fill="none" fill-rule="evenodd">
    <path fill="#6D6E71" d="M45.0002388,4.9998806 C67.0909851,4.9998806 85.0002388,22.9091343 85.0002388,44.9998806 C85.0002388,67.0906269 67.0909851,84.9998806 45.0002388,84.9998806 C22.9082985,84.9998806 5.00023881,67.0906269 5.00023881,44.9998806 C5.00023881,22.9091343 22.9082985,4.9998806 45.0002388,4.9998806"/>
    <path stroke="#FFF" stroke-width="1.255" d="M45.0002388,9.17898507 C64.7829254,9.17898507 80.8211343,25.217194 80.8211343,44.9998806 C80.8211343,64.7837612 64.7829254,80.8207761 45.0002388,80.8207761 C25.2163582,80.8207761 9.17934328,64.7837612 9.17934328,44.9998806 C9.17934328,25.217194 25.2163582,9.17898507 45.0002388,9.17898507 Z"/>
    <path fill="#FFF" d="M27.881194,37.6743881 L25.7258507,37.6743881 L25.7258507,31.9239403 C25.7258507,31.9239403 35.2327164,29.8881194 44.9903284,21.3245373 C54.7479403,29.8881194 64.2739104,31.9239403 64.2739104,31.9239403 L64.2739104,37.6743881 L62.1374328,37.6743881 L62.1374328,52.5820896 L62.4192239,52.5820896 C63.4437015,52.5820896 64.2747463,53.3450746 64.2747463,54.2871642 L64.2747463,54.9952239 L64.2747463,56.6107463 L64.2747463,59.3247761 L64.2747463,60.6585075 L64.2747463,60.9402985 L64.2747463,61.6495522 C64.2747463,62.5916418 63.4437015,63.3546269 62.4192239,63.3546269 L53.6825075,63.3546269 L36.3177313,63.3546269 L27.5810149,63.3546269 C26.5565373,63.3546269 25.7266866,62.5916418 25.7266866,61.6495522 L25.7266866,60.9402985 L25.7266866,60.6585075 L25.7266866,59.3247761 L25.7266866,56.6107463 L25.7266866,54.9952239 L25.7266866,54.2871642 C25.7266866,53.3450746 26.5565373,52.5820896 27.5810149,52.5820896 L27.881194,52.5820896 L27.881194,37.6743881 Z M29.721194,37.6743881 L29.721194,52.5820896 L36.3189254,52.5820896 L53.6825075,52.5820896 L60.2986269,52.5820896 L60.2986269,37.6743881 L44.9903284,37.6743881 L29.721194,37.6743881 Z M45.0002388,44.3731343 C43.7142687,44.3731343 42.6718806,43.3307463 42.6718806,42.0447761 C42.6718806,40.758806 43.7142687,39.7176119 45.0002388,39.7176119 C46.286209,39.7176119 47.327403,40.758806 47.327403,42.0447761 C47.327403,43.3307463 46.286209,44.3731343 45.0002388,44.3731343 Z M43.2638806,47.6244776 L43.2638806,44.9808955 L46.7385075,44.9808955 L46.7385075,47.6244776 L43.2638806,47.6244776 Z M47.9135522,47.4736716 C47.9135522,47.4700896 47.9135522,47.4653134 47.9135522,47.4617313 L47.9123582,47.4617313 L47.9123582,44.9805373 C48.0090746,44.9888955 48.0938507,44.9996418 48.1225075,45.009194 C49.142209,45.2635224 49.4431045,46.2951642 49.465791,47.1309851 C49.464597,47.207403 49.464597,47.286209 49.464597,47.3638209 C49.4717612,47.3996418 49.4765373,47.4366567 49.4765373,47.4736716 L49.4765373,51.4271045 L47.9135522,51.4271045 L47.9135522,47.4736716 Z M40.5242985,51.4265075 L40.5242985,47.4730746 C40.5242985,47.4360597 40.5278806,47.3990448 40.5350448,47.3632239 C40.5350448,47.2856119 40.5350448,47.208 40.5338507,47.1303881 C40.5565373,46.2957612 40.8574328,45.2629254 41.8771343,45.008597 C41.905791,44.9990448 41.9929552,44.9894925 42.0896716,44.9811343 L42.0896716,47.4611343 L42.0860896,47.4611343 C42.0860896,47.4647164 42.0860896,47.4694925 42.0860896,47.4730746 L42.0860896,51.4265075 L40.5242985,51.4265075 Z"/>
  </g>
</svg>
