<svg xmlns="http://www.w3.org/2000/svg" width="90" height="90" viewBox="0 0 90 90">
  <g fill="none" fill-rule="evenodd">
    <path fill="#6D6E71" d="M45.5,2 C69.5239625,2 89,21.4760375 89,45.5 C89,69.52505 69.5239625,89 45.5,89 C21.47495,89 2,69.52505 2,45.5 C2,21.4760375 21.47495,2 45.5,2"/>
    <path fill="#FFF" d="M9.1711925,55.2550925 L9.49853,56.0380925 L14.2258925,54.5090675 L13.889855,53.7064925 L15.194855,53.1605675 L16.3747925,55.9815425 L13.324355,58.673105 C12.945905,59.008055 12.66533,59.18423 12.66533,59.18423 L12.67403,59.203805 C12.67403,59.203805 12.9970175,59.1287675 13.50053,59.0939675 L17.55908,58.812305 L18.73793,61.63328 L17.43293,62.179205 L17.09798,61.37663 L12.689255,63.6679925 L13.0165925,64.4509925 L11.7115925,64.9969175 L10.35113,61.744205 L11.65613,61.19828 L11.954105,61.91168 L14.4629675,60.661055 C14.755505,60.51533 15.2829425,60.3663425 15.2829425,60.3663425 L15.2655425,60.326105 C15.2655425,60.326105 14.77073,60.4381175 14.4238175,60.45443 L11.4092675,60.6055925 L10.779605,59.1004925 L13.00463,57.0603425 C13.259105,56.824355 13.68758,56.550305 13.68758,56.550305 L13.6712675,56.511155 C13.6712675,56.511155 13.193855,56.780855 12.885005,56.8863425 L10.23368,57.794405 L10.5305675,58.507805 L9.2255675,59.05373 L7.8661925,55.8010175 L9.1711925,55.2550925 Z M24.7244,73.3762137 L25.2844625,71.9929137 C25.4736875,71.5339887 25.6629125,71.2534137 25.6629125,71.2534137 L25.6281125,71.2273137 C25.6281125,71.2273137 25.4040875,71.4807012 25.0082375,71.7797637 L23.8032875,72.6639012 L24.7244,73.3762137 Z M19.66535,72.6443262 L20.1732125,73.0369137 L25.7455625,69.2959137 L27.501875,70.6531137 L25.2888125,76.9888887 L25.796675,77.3814762 L24.9321125,78.5016012 L22.3569125,76.5114762 L23.2225625,75.3924387 L23.7554375,75.8046012 L24.1556375,74.8062762 L22.57115,73.5817512 L21.7065875,74.2212012 L22.24055,74.6333637 L21.3749,75.7534887 L18.7997,73.7633637 L19.66535,72.6443262 Z M39.6334813,79.4414187 C40.2326937,79.5479937 40.6611688,79.3152687 40.7851438,78.6192687 C40.8482188,78.2658312 40.8210313,77.9200062 40.5176187,77.6992437 C40.3621062,77.5839687 40.1239437,77.4969687 39.8031312,77.4393312 L39.1180063,77.3175312 L38.7667438,79.2869937 L39.6334813,79.4414187 Z M35.4966312,81.5859687 L36.3524937,81.7382187 L37.2214062,76.8683937 L36.3644562,76.7161437 L36.6124062,75.3241437 L40.0695688,75.9407562 C40.6481187,76.0440687 41.1570688,76.1571687 41.5735813,76.3637937 C42.4446688,76.8064062 42.9209938,77.6644437 42.7208938,78.7878312 C42.5414562,79.7937687 41.9378938,80.3929812 41.1048687,80.6648562 L41.1016063,80.6866062 C41.1016063,80.6866062 41.3778312,80.8682187 41.4898438,81.2303562 L41.8769937,82.4701062 C41.9400687,82.6691187 42.0792687,82.7593812 42.3250438,82.8039687 L42.5925687,82.8507312 L42.3446187,84.2427312 L41.0820312,84.0176187 C40.4610687,83.9066937 40.2413938,83.7131187 40.1011063,83.2574562 L39.4888438,81.3043062 C39.4051063,81.0346062 39.2811313,80.9247687 38.8852812,80.8540812 L38.4992187,80.7855687 L38.2686687,82.0807812 L39.0712437,82.2232437 L38.8232938,83.6141562 L35.2486812,82.9768812 L35.4966312,81.5859687 Z M53.3333712,82.1218887 L54.1631338,81.8608887 L52.6754337,77.1411387 L51.8456712,77.4032262 L51.4204587,76.0547262 L54.6470712,75.0379137 L55.0711962,76.3864137 L54.5317962,76.5560637 L55.0255212,78.1220637 L55.6475712,77.9263137 L56.2435213,76.0166637 L55.6834587,76.1939262 L55.2582462,74.8454262 L58.3075963,73.8840762 L58.7317212,75.2325762 L58.1096713,75.4283262 L57.2037837,78.0513762 L57.2103087,78.0720387 C57.2103087,78.0720387 57.5670087,78.1198887 57.9900463,78.5559762 L59.3570337,79.9610262 C59.4918837,80.1013137 59.6495712,80.1306762 59.8877337,80.0567262 L60.2096337,79.9545012 L60.6337587,81.3030012 L59.3689962,81.7021137 C58.7469463,81.8978637 58.4533213,81.7967262 58.1477338,81.4824387 L56.3261713,79.5706137 C56.1739213,79.4140137 56.0118837,79.4074887 55.7323963,79.4955762 L55.4833587,79.5749637 L56.0194963,81.2758137 L56.7970588,81.0300387 L57.2222713,82.3785387 L53.7585837,83.4703887 L53.3333712,82.1218887 Z M69.4430525,74.229575 L70.064015,73.6194875 L66.59924,70.0862 L65.97719,70.6962875 L64.987565,69.686 L69.26579,65.4893375 L70.873115,67.1282 L69.7084025,68.2711625 L69.167915,67.7198 L68.06519,68.800775 L69.17009,69.9263375 L70.79264,68.335325 L71.85839,69.422825 L70.23584,71.0138375 L71.377715,72.1796375 L72.573965,71.006225 L72.0334775,70.4548625 L73.19819,69.3129875 L74.805515,70.9507625 L70.433765,75.238775 L69.4430525,74.229575 Z M80.1279575,59.4405537 L80.411795,58.6194912 L75.8410325,57.0393537 L75.5387075,57.9115287 L76.5761825,58.2704037 L76.044395,59.8113912 L73.5681575,58.9555287 L75.87257,52.2891537 L78.3488075,53.1450162 L77.8159325,54.6860037 L76.7784575,54.3271287 L76.47722,55.2003912 L81.0479825,56.7805287 L81.33182,55.9583787 L82.6661825,56.4205662 L81.4634075,59.9027412 L80.1279575,59.4405537 Z M14.65067,35.4220287 L14.98997,34.6216287 L10.437695,32.6880537 L10.0973075,33.4895412 L8.797745,32.9370912 L11.06192,27.6039912 L13.1727575,28.5000912 L12.5354825,30.0008412 L11.925395,29.7409287 L11.3979575,30.9817662 L12.94982,31.6407912 L13.84157,29.5397412 L15.24227,30.1346037 L14.35052,32.2356537 L15.75122,32.8305162 L16.1329325,31.9300662 L17.43467,32.4814287 L15.95132,35.9744787 L14.65067,35.4220287 Z M20.4976137,21.230915 L19.1752138,20.5403525 C18.7358638,20.3076275 18.4759513,20.09339 18.4759513,20.09339 L18.4455012,20.1249275 C18.4455012,20.1249275 18.6771388,20.37179 18.9359637,20.7948275 L19.7004763,22.079165 L20.4976137,21.230915 Z M19.2817888,26.19644 L19.7222262,25.7277275 L16.5347638,19.8226025 L18.0540013,18.2044025 L24.1472638,21.0166775 L24.5877012,20.5490525 L25.6186513,21.5169275 L23.3903638,23.888765 L22.3594138,22.9198025 L22.8216013,22.4282525 L21.8667763,21.9345275 L20.4965263,23.3939525 L21.0478888,24.3161525 L21.5100763,23.8246025 L22.5410263,24.7924775 L20.3138263,27.1654025 L19.2817888,26.19644 Z M30.9971,13.4586612 C31.54955,13.2041862 31.7681375,12.7680987 31.4723375,12.1264737 C31.3222625,11.8013112 31.1025875,11.5316112 30.7284875,11.5239987 C30.533825,11.5174737 30.2891375,11.5827237 29.99225,11.7186612 L29.3604125,12.0101112 L30.1977875,13.8273237 L30.9971,13.4586612 Z M28.82645,17.5813737 L29.615975,17.2181487 L27.5486375,12.7256862 L26.758025,13.0889112 L26.1675125,11.8056612 L29.3560625,10.3364487 C29.8889375,10.0917612 30.3717875,9.89274875 30.8318,9.82532375 C31.7985875,9.69047375 32.6794625,10.1232987 33.156875,11.1596862 C33.5842625,12.0873237 33.4320125,12.9236112 32.9034875,13.6217862 L32.9121875,13.6413612 C32.9121875,13.6413612 33.2427875,13.6326612 33.54185,13.8664737 L34.5673625,14.6625237 C34.73375,14.7897612 34.89905,14.7854112 35.1263375,14.6810112 L35.3732,14.5668237 L35.9637125,15.8500737 L34.799,16.3872987 C34.2258875,16.6515612 33.935525,16.6167612 33.5603375,16.3231362 L31.9421375,15.0692487 C31.7192,14.8974237 31.5549875,14.8778487 31.1895875,15.0453237 L30.833975,15.2095362 L31.38425,16.4036112 L32.1248375,16.0632237 L32.71535,17.3464737 L29.41805,18.8646237 L28.82645,17.5813737 Z M40.3901638,13.2562775 L41.2373263,13.24214 L41.5679263,8.289665 L40.6979263,8.3038025 L40.6750888,6.89114 L43.7287888,6.8400275 L45.0979513,10.6658525 C45.2686888,11.14109 45.3285013,11.4662525 45.3285013,11.4662525 L45.3502513,11.4662525 C45.3502513,11.4662525 45.3991888,11.138915 45.5547013,10.65824 L46.7933638,6.788915 L49.8481513,6.736715 L49.8720763,8.150465 L49.0020763,8.1646025 L49.4979763,13.10294 L50.3462263,13.0888025 L50.3701513,14.5025525 L46.8477388,14.5612775 L46.8249013,13.148615 L47.5959388,13.135565 L47.3643013,10.34504 C47.3371138,10.01879 47.3936638,9.47504 47.3936638,9.47504 L47.3501638,9.47504 C47.3501638,9.47504 47.2718638,9.9763775 47.1576763,10.3048025 L46.1832763,13.15949 L44.5531138,13.1866775 L43.4830138,10.36679 C43.3579513,10.042715 43.2633388,9.5435525 43.2633388,9.5435525 L43.2198388,9.54464 C43.2198388,9.54464 43.2937888,10.0873025 43.2774763,10.4135525 L43.1393638,13.2106025 L43.9114888,13.1975525 L43.9354138,14.610215 L40.4130013,14.66894 L40.3901638,13.2562775 Z M55.5312087,14.60978 L56.3283462,14.9545175 L58.2923712,10.4174675 L57.4941462,10.0716425 L58.0552962,8.7753425 L63.5504337,11.1526175 L62.6401962,13.25693 L61.1437962,12.6098675 L61.4493837,11.901905 L60.0345462,11.288555 L59.4081462,12.73493 L61.4928837,13.6364675 L60.8882337,15.0328175 L58.8045837,14.13128 L58.1575212,15.62768 L59.6930712,16.291055 L59.9986587,15.58418 L61.4950587,16.2312425 L60.5848212,18.335555 L54.9700587,15.90608 L55.5312087,14.60978 Z M70.4508388,20.7269675 C70.8814888,21.15653 71.3654263,21.20873 71.8645888,20.70848 C72.1168888,20.454005 72.2930638,20.1549425 72.1701763,19.8004175 C72.1071013,19.61663 71.9613763,19.410005 71.7308263,19.179455 L71.2381888,18.6889925 L69.8266138,20.106005 L70.4508388,20.7269675 Z M65.8311388,20.12993 L66.4477513,20.74328 L69.9353638,17.239355 L69.3198388,16.626005 L70.3159888,15.625505 L72.8041888,18.1017425 C73.2196138,18.51608 73.5741388,18.89888 73.7970763,19.305605 C74.2603513,20.16473 74.1624763,21.141305 73.3577263,21.950405 C72.6367138,22.6735925 71.7993388,22.8214925 70.9619638,22.5691925 L70.9467388,22.5844175 C70.9467388,22.5844175 71.0696263,22.89218 70.9554388,23.25323 L70.5661138,24.490805 C70.5052138,24.690905 70.5672013,24.8442425 70.7444638,25.021505 L70.9369513,25.212905 L69.9397138,26.213405 L69.0316513,25.308605 C68.5846888,24.864905 68.5150888,24.57998 68.6608138,24.1264925 L69.2709013,22.17443 C69.3546388,21.90473 69.3154888,21.74378 69.0305638,21.4599425 L68.7532513,21.1837175 L67.8256138,22.115705 L68.4030763,22.6909925 L67.4069263,23.6914925 L64.8349888,21.13043 L65.8311388,20.12993 Z M75.77687,30.7003212 L75.2516075,30.9352212 C74.8840325,31.0994337 74.8840325,31.6584087 75.1319825,32.2141212 C75.3799325,32.7698337 75.75512,33.0786837 76.1324825,32.9101212 C76.6784075,32.6665212 76.4978825,31.8073962 76.4630825,30.9297837 C76.4000075,29.8031337 76.4630825,28.6917087 77.7637325,28.1120712 C79.3406075,27.4073712 80.4128825,28.4763837 80.9762075,29.7357087 C81.516695,30.9471837 81.5960825,32.3511462 80.6934575,32.7546087 L79.6407575,33.2244087 L78.9317075,31.6366587 L79.37867,31.4365587 C79.6559825,31.3125837 79.637495,30.8688837 79.437395,30.4230087 C79.2557825,30.0162837 78.9773825,29.7117837 78.6098075,29.8759962 C78.123695,30.0924087 78.1769825,30.7710087 78.236795,31.5181212 C78.3422825,32.7676587 78.3792575,34.0498212 77.0394575,34.6468587 C75.422345,35.3689587 74.1967325,34.2510087 73.5942575,32.9003337 C73.0048325,31.5811962 73.0135325,30.0293337 74.1554075,29.5203837 L75.06782,29.1125712 L75.77687,30.7003212 Z M29.908295,52.4057337 L29.908295,38.827535 L27.9452488,38.827535 L27.9452488,33.5912225 C27.9452488,33.5912225 36.6039238,31.737035 45.4909738,23.937485 C54.3780238,31.737035 63.0540988,33.5912225 63.0540988,33.5912225 L63.0540988,38.827535 L61.108235,38.827535 L61.108235,52.4057337 L61.364885,52.4057337 C62.29796,52.4057337 63.05486,53.1006462 63.05486,53.9586837 L63.05486,54.6035712 L63.05486,56.0749587 L63.05486,58.5479337 L63.05486,59.7615837 L63.05486,60.0182337 L63.05486,60.6642087 C63.05486,61.5222462 62.29796,62.2171587 61.364885,62.2171587 L53.4076475,62.2171587 L37.592135,62.2171587 L29.6348975,62.2171587 C28.7018225,62.2171587 27.94601,61.5222462 27.94601,60.6642087 L27.94601,60.0182337 L27.94601,59.7615837 L27.94601,58.5479337 L27.94601,56.0749587 L27.94601,54.6035712 L27.94601,53.9586837 C27.94601,53.1006462 28.7018225,52.4057337 29.6348975,52.4057337 L29.908295,52.4057337 Z M31.5841325,52.4057337 L37.5932225,52.4057337 L53.4076475,52.4057337 L59.433485,52.4057337 L59.433485,38.827535 L45.4909738,38.827535 L31.5841325,38.827535 L31.5841325,52.4057337 Z M45.5,44.9291713 C44.3287625,44.9291713 43.379375,43.9797838 43.379375,42.8085463 C43.379375,41.6373088 44.3287625,40.6890088 45.5,40.6890088 C46.6712375,40.6890088 47.6195375,41.6373088 47.6195375,42.8085463 C47.6195375,43.9797838 46.6712375,44.9291713 45.5,44.9291713 Z M43.9185575,47.8905425 L43.9185575,45.4828175 L47.0831825,45.4828175 L47.0831825,47.8905425 L43.9185575,47.8905425 Z M48.1533913,47.7530825 C48.1533913,47.74982 48.1533913,47.74547 48.1533913,47.7422075 L48.1523038,47.7422075 L48.1523038,45.48347 C48.2403913,45.489995 48.3176038,45.4997825 48.3437038,45.5084825 C49.2724288,45.74012 49.5464788,46.67972 49.5671413,47.44097 C49.5660538,47.51057 49.5660538,47.582345 49.5660538,47.6530325 C49.5725788,47.6856575 49.5769288,47.71937 49.5769288,47.7530825 L49.5769288,51.353795 L48.1533913,51.353795 L48.1533913,47.7530825 Z M41.4233975,51.353795 L41.4233975,47.7530825 C41.4233975,47.71937 41.42666,47.6856575 41.433185,47.6530325 C41.433185,47.582345 41.433185,47.51057 41.4320975,47.44097 C41.45276,46.67972 41.72681,45.74012 42.655535,45.5084825 C42.681635,45.4997825 42.7610225,45.489995 42.84911,45.4823825 L42.84911,47.7422075 L42.8458475,47.7422075 C42.8458475,47.74547 42.8458475,47.74982 42.8458475,47.7530825 L42.8458475,51.353795 L41.4233975,51.353795 Z M10.757767,51.4389409 C10.8034163,51.7040014 10.6255484,51.9558814 10.3604879,52.0015307 C10.0954274,52.04718 9.84354734,51.8693121 9.79789804,51.6042516 C9.45360252,49.6051164 9.2797075,47.5653002 9.2797075,45.4968462 C9.2797075,42.3787927 9.67602084,39.3025143 10.4481713,36.337009 C10.5159434,36.0767248 10.7818856,35.9206629 11.0421698,35.988435 C11.302454,36.0562071 11.4585158,36.3221493 11.3907437,36.5824335 C10.6393973,39.4680393 10.2537075,42.4618552 10.2537075,45.4968462 C10.2537075,47.5099697 10.4228878,49.494481 10.757767,51.4389409 Z M79.8278056,37.4947571 C79.7666893,37.2328301 79.9294785,36.9709519 80.1914054,36.9098356 C80.4533324,36.8487193 80.7152106,37.0115085 80.7763269,37.2734354 C81.3988476,39.9413814 81.7134412,42.6871764 81.7134412,45.4968462 C81.7134412,47.1221589 81.605469,48.7528164 81.3938816,50.3564261 C81.3586984,50.6230776 81.114013,50.8107198 80.8473614,50.7755366 C80.5807099,50.7403534 80.3930677,50.495668 80.4282509,50.2290164 C80.6342869,48.6674802 80.7394412,47.0793798 80.7394412,45.4968462 C80.7394412,42.7615062 80.4333561,40.0899736 79.8278056,37.4947571 Z"/>
  </g>
</svg>
