<svg xmlns="http://www.w3.org/2000/svg" width="90" height="90" viewBox="0 0 90 90">
  <g fill="none" fill-rule="evenodd">
    <path fill="#6D6E71" d="M45.0002388,5 C67.0909851,5 85.0002388,22.9092537 85.0002388,45 C85.0002388,67.0907463 67.0909851,85 45.0002388,85 C22.9082985,85 5.00023881,67.0907463 5.00023881,45 C5.00023881,22.9092537 22.9082985,5 45.0002388,5"/>
    <path stroke="#FFF" stroke-width="1.255" d="M45.0002388,9.17910448 C64.7829254,9.17910448 80.8211343,25.2173134 80.8211343,45 C80.8211343,64.7826866 64.7829254,80.8208955 45.0002388,80.8208955 C25.2163582,80.8208955 9.17934328,64.7826866 9.17934328,45 C9.17934328,25.2173134 25.2163582,9.17910448 45.0002388,9.17910448 Z"/>
    <path fill="#FFF" d="M63.9134328,51.4955224 L58.5641791,51.4955224 C59.519403,47.2925373 59.519403,42.8985075 58.7552239,38.5044776 L63.5313433,38.5044776 C63.7223881,38.5044776 63.9134328,38.6955224 63.9134328,38.8865672 C65.2507463,43.0895522 65.2507463,47.4835821 63.9134328,51.4955224 Z M54.1701493,62.7671642 C55.1253731,60.4746269 56.2716418,58.1820896 57.2268657,55.8895522 C57.2268657,55.6985075 57.6089552,55.3164179 57.8,55.3164179 L62.0029851,55.3164179 C60.2835821,58.3731343 57.6089552,61.0477612 54.1701493,62.7671642 Z M46.9104478,51.4955224 L46.9104478,38.5044776 L54.9343284,38.5044776 C55.1253731,39.6507463 55.3164179,40.6059701 55.5074627,41.7522388 C55.8895522,44.8089552 55.6985075,47.8656716 55.1253731,50.7313433 C55.1253731,51.3044776 54.7432836,51.4955224 54.1701493,51.4955224 L46.9104478,51.4955224 Z M46.9104478,64.4865672 L46.9104478,55.1253731 L53.7880597,55.1253731 C52.641791,58.9462687 50.158209,62.3850746 46.9104478,64.4865672 Z M46.9104478,25.3223881 C50.3492537,27.4238806 52.8328358,30.8626866 53.9791045,34.6835821 L46.9104478,34.6835821 L46.9104478,25.3223881 Z M62.1940299,34.6835821 L58.3731343,34.6835821 C58.1820896,34.6835821 57.8,34.3014925 57.6089552,34.1104478 C56.6537313,31.8179104 55.6985075,29.7164179 54.7432836,27.4238806 C57.8,29.1432836 60.4746269,31.6268657 62.1940299,34.6835821 Z M43.0895522,34.6835821 L36.2119403,34.6835821 C37.358209,30.8626866 39.841791,27.6149254 43.0895522,25.3223881 L43.0895522,34.6835821 Z M43.0895522,64.4865672 C40.0328358,62.1940299 37.5492537,58.9462687 36.4029851,55.3164179 L43.0895522,55.3164179 L43.0895522,64.4865672 Z M27.8059701,55.1253731 L32.3910448,55.1253731 C32.5820896,55.1253731 32.7731343,55.3164179 32.7731343,55.5074627 L36.0208955,62.958209 C32.5820896,61.238806 29.7164179,58.5641791 27.8059701,55.1253731 Z M25.1313433,47.4835821 C24.7492537,44.8089552 25.1313433,41.9432836 25.8955224,39.2686567 C25.8955224,38.6955224 26.4686567,38.5044776 26.8507463,38.5044776 L31.4358209,38.5044776 C30.6716418,42.7074627 30.6716418,47.2925373 31.6268657,51.4955224 L25.8955224,51.4955224 C25.7044776,50.158209 25.3223881,48.8208955 25.1313433,47.4835821 Z M43.0895522,38.5044776 L43.0895522,51.4955224 L35.2567164,51.4955224 C34.3014925,47.2925373 34.3014925,42.8985075 35.2567164,38.5044776 L43.0895522,38.5044776 Z M35.8298507,27.2328358 C35.638806,27.6149254 35.4477612,27.9970149 35.2567164,28.1880597 C34.3014925,30.0985075 33.5373134,32.0089552 32.5820896,33.919403 C32.3910448,34.4925373 32.2,34.6835821 31.4358209,34.6835821 L27.6149254,34.6835821 C29.7164179,31.6268657 32.3910448,28.9522388 35.8298507,27.2328358 Z M68.6895522,43.6626866 C67.9253731,30.6716418 56.6537313,20.7373134 43.6626866,21.5014925 C30.6716418,22.2656716 20.7373134,33.5373134 21.5014925,46.5283582 C22.2656716,59.1373134 32.9641791,69.0716418 45.5731343,68.6895522 C58.5641791,68.4985075 68.880597,57.6089552 68.6895522,44.6179104 L68.6895522,43.6626866 Z"/>
  </g>
</svg>
