<svg xmlns="http://www.w3.org/2000/svg" width="90" height="90" viewBox="0 0 90 90">
  <g fill="none" fill-rule="evenodd">
    <path fill="#6D6E71" d="M45.5002175,1.99989125 C69.52418,1.99989125 89.0002175,21.4759288 89.0002175,45.4998913 C89.0002175,69.5238538 69.52418,88.9998913 45.5002175,88.9998913 C21.4751675,88.9998913 2.0002175,69.5238538 2.0002175,45.4998913 C2.0002175,21.4759288 21.4751675,1.99989125 45.5002175,1.99989125"/>
    <path fill="#FFF" d="M62.726,51.4158912 C63.944,47.7618912 63.944,43.7598912 62.726,39.9318912 C62.726,39.7578912 62.552,39.5838912 62.378,39.5838912 L58.028,39.5838912 C58.724,43.5858912 58.724,47.5878912 57.854,51.4158912 L62.726,51.4158912 Z M53.852,61.6818912 C56.984,60.1158912 59.42,57.6798912 60.986,54.8958912 L57.158,54.8958912 C56.984,54.8958912 56.636,55.2438912 56.636,55.4178912 C55.766,57.5058912 54.722,59.5938912 53.852,61.6818912 Z M47.24,51.4158912 L53.852,51.4158912 C54.374,51.4158912 54.722,51.2418912 54.722,50.7198912 C55.244,48.1098912 55.418,45.3258912 55.07,42.5418912 C54.896,41.4978912 54.722,40.6278912 54.548,39.5838912 L47.24,39.5838912 L47.24,51.4158912 Z M47.24,63.2478912 C50.198,61.3338912 52.46,58.2018912 53.504,54.7218912 L47.24,54.7218912 L47.24,63.2478912 Z M47.24,27.5778912 L47.24,36.1038912 L53.678,36.1038912 C52.634,32.6238912 50.372,29.4918912 47.24,27.5778912 Z M61.16,36.1038912 C59.594,33.3198912 57.158,31.0578912 54.374,29.4918912 C55.244,31.5798912 56.114,33.4938912 56.984,35.5818912 C57.158,35.7558912 57.506,36.1038912 57.68,36.1038912 L61.16,36.1038912 Z M43.76,36.1038912 L43.76,27.5778912 C40.802,29.6658912 38.54,32.6238912 37.496,36.1038912 L43.76,36.1038912 Z M43.76,63.2478912 L43.76,54.8958912 L37.67,54.8958912 C38.714,58.2018912 40.976,61.1598912 43.76,63.2478912 Z M29.84,54.7218912 C31.58,57.8538912 34.19,60.2898912 37.322,61.8558912 L34.364,55.0698912 C34.364,54.8958912 34.19,54.7218912 34.016,54.7218912 L29.84,54.7218912 Z M27.404,47.7618912 C27.578,48.9798912 27.926,50.1978912 28.1,51.4158912 L33.32,51.4158912 C32.45,47.5878912 32.45,43.4118912 33.146,39.5838912 L28.97,39.5838912 C28.622,39.5838912 28.1,39.7578912 28.1,40.2798912 C27.404,42.7158912 27.056,45.3258912 27.404,47.7618912 Z M43.76,39.5838912 L36.626,39.5838912 C35.756,43.5858912 35.756,47.5878912 36.626,51.4158912 L43.76,51.4158912 L43.76,39.5838912 Z M37.148,29.3178912 C34.016,30.8838912 31.58,33.3198912 29.666,36.1038912 L33.146,36.1038912 C33.842,36.1038912 34.016,35.9298912 34.19,35.4078912 C35.06,33.6678912 35.756,31.9278912 36.626,30.1878912 C36.8,30.0138912 36.974,29.6658912 37.148,29.3178912 Z M67.076,44.2818912 L67.076,45.1518912 C67.25,56.9838912 57.854,66.9018912 46.022,67.0758912 C34.538,67.4238912 24.794,58.3758912 24.098,46.8918912 C23.402,35.0598912 32.45,24.7938912 44.282,24.0978912 C56.114,23.4018912 66.38,32.4498912 67.076,44.2818912 Z M14.62544,49.4856875 L14.5656275,48.6178625 L9.6283775,48.9571625 L9.6871025,49.8249875 L8.276615,49.9228625 L8.024315,46.24385 L9.4348025,46.1470625 L9.494615,47.0148875 L14.431865,46.6755875 L14.3720525,45.806675 L15.78254,45.7098875 L16.0359275,49.3889 L14.62544,49.4856875 Z M15.0071525,38.1874325 L15.3203525,37.37507 L10.699565,35.5926575 L10.386365,36.40502 L9.06614,35.8971575 L10.08839,33.2458325 L14.814665,32.45522 C15.175715,32.396495 15.67379,32.4367325 15.67379,32.4367325 L15.689015,32.3954075 C15.689015,32.3954075 15.17789,32.2692575 14.8527275,32.1431075 L12.396065,31.195895 L12.0665525,32.048495 L10.7463275,31.539545 L12.08939,28.0562825 L13.409615,28.5652325 L13.096415,29.377595 L19.0374275,31.6689575 L18.3327275,33.497045 L13.622765,34.306145 C13.261715,34.36487 12.76364,34.3246325 12.76364,34.3246325 L12.748415,34.36487 C12.748415,34.36487 13.25954,34.4921075 13.583615,34.61717 L16.02179,35.5578575 L16.350215,34.70417 L17.67044,35.21312 L16.3273775,38.6963825 L15.0071525,38.1874325 Z M23.5415263,23.4409325 L24.1940263,22.8645575 L20.9880763,19.2388325 L20.2964263,19.851095 L21.0239638,20.6743325 L19.8016138,21.75422 L18.0659638,19.7912825 L23.3533888,15.1172075 L25.0890388,17.080145 L23.8666888,18.16112 L23.1391513,17.3378825 L22.4475013,17.950145 L25.6512763,21.57587 L26.3037763,20.999495 L27.2401138,22.05872 L24.4778638,24.5001575 L23.5415263,23.4409325 Z M34.0575425,16.44113 L34.8949175,16.2029675 L33.5420675,11.4462425 L32.70578,11.684405 L32.3197175,10.32503 L38.080205,8.6883425 L38.706605,10.8937925 L37.13843,11.3396675 L36.9285425,10.596905 L35.4430175,11.0199425 L35.8736675,12.5359175 L38.0595425,11.9138675 L38.4749675,13.37873 L36.29018,13.998605 L36.736055,15.56678 L38.345555,15.1089425 L38.13458,14.3672675 L39.702755,13.92248 L40.3302425,16.12793 L34.443605,17.800505 L34.0575425,16.44113 Z M51.6498125,12.1469187 C52.249025,12.2524062 52.6764125,12.0196812 52.7993,11.3236812 C52.862375,10.9702437 52.8351875,10.6233312 52.531775,10.4036562 C52.375175,10.2883812 52.1370125,10.2013812 51.8162,10.1448312 L51.131075,10.0241187 L50.783075,11.9935812 L51.6498125,12.1469187 Z M47.5173125,14.2969062 L48.373175,14.4480687 L49.2333875,9.57824375 L48.377525,9.42708125 L48.6233,8.03616875 L52.0804625,8.64734375 C52.6590125,8.74848125 53.1679625,8.86158125 53.584475,9.06711875 C54.45665,9.50864375 54.9340625,10.3655937 54.73505,11.4889812 C54.5567,12.4949187 53.954225,13.0952187 53.1222875,13.3670937 L53.119025,13.3888437 C53.119025,13.3888437 53.39525,13.5704562 53.50835,13.9325937 L53.8965875,15.1712562 C53.96075,15.3691812 54.0988625,15.4605312 54.345725,15.5040312 L54.61325,15.5507937 L54.367475,16.9427937 L53.1038,16.7198562 C52.483925,16.6100187 52.2631625,16.4164437 52.1239625,15.9607812 L51.5084375,14.0087187 C51.4236125,13.7401062 51.2996375,13.6302687 50.9027,13.5595812 L50.517725,13.4921562 L50.28935,14.7873687 L51.091925,14.9287437 L50.84615,16.3196562 L47.2715375,15.6889062 L47.5173125,14.2969062 Z M61.3459625,18.4505037 L62.0310875,18.9855537 L65.0739125,15.0890412 L64.3887875,14.5539912 L65.2587875,13.4414787 L67.4925125,15.1869162 L66.8759,19.9295037 C66.82805,20.2916412 66.64535,20.7560037 66.64535,20.7560037 L66.6790625,20.7821037 C66.6790625,20.7821037 66.9487625,20.3307912 67.163,20.0578287 L68.7812,17.9850537 L68.0623625,17.4239037 L68.931275,16.3103037 L71.8686125,18.6038412 L70.9986125,19.7174412 L70.314575,19.1823912 L66.40175,24.1914162 L64.8607625,22.9875537 L65.455625,18.2547537 C65.503475,17.8926162 65.686175,17.4293412 65.686175,17.4293412 L65.6524625,17.4021537 C65.6524625,17.4021537 65.3827625,17.8534662 65.168525,18.1275162 L63.5644625,20.1828912 L64.2833,20.7440412 L63.4133,21.8576412 L60.47705,19.5630162 L61.3459625,18.4505037 Z M72.3802813,29.6080362 L72.7478563,30.3964737 L77.2327063,28.3052112 L76.8651313,27.5167737 L78.1462063,26.9186487 L80.6789938,32.3496237 L78.5996938,33.3207612 L77.9102188,31.8417612 L78.6105688,31.5155112 L77.9569813,30.1158987 L76.5280063,30.7825362 L77.4882688,32.8422612 L76.1082313,33.4860612 L75.1479688,31.4252487 L73.6700563,32.1147237 L74.3769313,33.6328737 L75.0772813,33.3066237 L75.7667563,34.7856237 L73.6874563,35.7545862 L71.0992063,30.2061612 L72.3802813,29.6080362 Z M76.598585,43.9684737 L76.58336,44.8384737 L81.42056,44.9200362 L81.435785,43.9956612 L80.3384975,43.9771737 L80.365685,42.3470112 L82.9854725,42.3905112 L82.866935,49.4451237 L80.2471475,49.4005362 L80.274335,47.7703737 L81.37271,47.7888612 L81.387935,46.8655737 L76.5518225,46.7840112 L76.5365975,47.6529237 L75.123935,47.6289987 L75.1859225,43.9445487 L76.598585,43.9684737 Z M10.5392139,55.9149359 C10.4838662,55.7239725 10.5938044,55.5242979 10.7847678,55.4689502 C10.9757312,55.4136025 11.1754059,55.5235407 11.2307536,55.7145041 C15.6351989,70.9109362 29.6094937,81.565595 45.6741087,81.565595 C61.3277398,81.565595 75.0222101,71.4488477 79.7727712,56.7912273 C79.8340708,56.6020904 80.0370896,56.4984578 80.2262265,56.5597574 C80.4153633,56.621057 80.5189959,56.8240759 80.4576963,57.0132127 C75.611576,71.9656763 61.6420841,82.285595 45.6741087,82.285595 C29.2869468,82.285595 15.0322934,71.4171776 10.5392139,55.9149359 Z"/>
  </g>
</svg>
