<svg xmlns="http://www.w3.org/2000/svg" width="90" height="90" viewBox="0 0 90 90">
  <g fill="none" fill-rule="evenodd">
    <path fill="#6D6E71" d="M45.5002175,1.9997825 C69.52418,1.9997825 89.0002175,21.47582 89.0002175,45.4997825 C89.0002175,69.5248325 69.52418,88.9997825 45.5002175,88.9997825 C21.4751675,88.9997825 2.0002175,69.5248325 2.0002175,45.4997825 C2.0002175,21.47582 21.4751675,1.9997825 45.5002175,1.9997825"/>
    <path fill="#FFF" d="M16.9767237,28.7295538 C17.5563612,27.7453663 17.1507237,26.4186163 15.9794862,25.7291413 C14.8539237,25.0657663 13.5347862,25.3746163 12.9540612,26.3588038 C12.3744237,27.3429913 12.7430862,28.6469038 13.8675612,29.3102788 C15.0398862,30.0008413 16.3959987,29.7137413 16.9767237,28.7295538 Z M11.5011612,25.5029413 C12.7061112,23.4584413 15.0790362,22.8614038 17.0006487,23.9945788 C18.9701112,25.1538538 19.6345737,27.5420038 18.4296237,29.5865038 C17.2257612,31.6299163 14.8147737,32.2052038 12.8453112,31.0448413 C10.9236987,29.9116663 10.2962112,27.5463538 11.5011612,25.5029413 Z M22.0701387,21.9820513 L22.7574387,21.4491763 L19.7298387,17.5385263 L19.0425387,18.0703138 L18.1768887,16.9534513 L20.4204012,15.2167138 L24.8682762,16.9839013 C25.2075762,17.1198388 25.6121262,17.4112888 25.6121262,17.4112888 L25.6469262,17.3851888 C25.6469262,17.3851888 25.2750012,17.0121763 25.0618512,16.7370388 L23.4523512,14.6577388 L22.7302512,15.2156263 L21.8656887,14.0987638 L24.8128137,11.8161013 L25.6784637,12.9340513 L24.9911637,13.4658388 L28.8833262,18.4944388 L27.3358137,19.6928638 L22.8933762,17.9496013 C22.5540762,17.8125763 22.1495262,17.5211263 22.1495262,17.5211263 L22.1158137,17.5472263 C22.1158137,17.5472263 22.4866512,17.9202388 22.6998012,18.1953763 L24.2962512,20.2583638 L25.0183512,19.6993888 L25.8829137,20.8173388 L22.9347012,23.0989138 L22.0701387,21.9820513 Z M32.15333,12.5907275 L35.3734175,11.4597275 L35.913905,12.99854 L32.6938175,14.12954 L32.15333,12.5907275 Z M40.9341313,12.757985 L41.8019562,12.7112225 L41.5387812,7.7739725 L40.6698687,7.8196475 L40.5948312,6.40916 L46.3792437,6.0992225 L46.5010437,8.3894975 L44.8741437,8.4764975 L44.8382562,7.81421 L43.4930187,7.8870725 L43.5821937,9.5683475 L45.8615937,9.4465475 L45.9420687,10.965785 L43.6637562,11.087585 L43.7453187,12.6068225 L44.7218937,12.5546225 L44.7969312,13.9661975 L41.0091688,14.1684725 L40.9341313,12.757985 Z M55.178315,11.381645 L55.1576525,9.89177 C55.15439,9.39587 55.21964,9.06527 55.21964,9.06527 L55.1772275,9.0533075 C55.1772275,9.0533075 55.069565,9.37412 54.821615,9.802595 L54.05384,11.08367 L55.178315,11.381645 Z M50.2378025,12.6681575 L50.8576775,12.83237 L54.53669,7.2306575 L56.679065,7.79942 L57.096665,14.487545 L57.71654,14.652845 L57.3544025,16.0176575 L54.2137025,15.1846325 L54.57584,13.8187325 L55.2272525,13.991645 L55.208765,12.91937 L53.27519,12.40607 L52.72709,13.32827 L53.3785025,13.5011825 L53.016365,14.8670825 L49.875665,14.03297 L50.2378025,12.6681575 Z M66.1632612,16.2864875 C66.6624237,16.635575 67.1485362,16.605125 67.5541737,16.0254875 C67.7607987,15.7318625 67.8825987,15.4056125 67.6998987,15.078275 C67.6074612,14.9075375 67.4269362,14.7281 67.1604987,14.54105 L66.5895612,14.1419375 L65.4411612,15.7818875 L66.1632612,16.2864875 Z M61.5054987,16.4909375 L62.2178112,16.9901 L65.0572737,12.9359 L64.3438737,12.4367375 L65.1551487,11.27855 L68.0337612,13.2936875 C68.5144362,13.6308125 68.9298612,13.947275 69.2202237,14.3105 C69.8248737,15.078275 69.8955613,16.0581125 69.2408862,16.9933625 C68.6547237,17.8307375 67.8532362,18.1211 66.9832362,18.0167 L66.9712737,18.0341 C66.9712737,18.0341 67.1463612,18.3157625 67.0952487,18.6920375 L66.9245112,19.9796375 C66.8984112,20.18735 66.9854112,20.3276375 67.1898612,20.472275 L67.4127987,20.6277875 L66.6015237,21.785975 L65.5509987,21.0497375 C65.0333487,20.6876 64.9158987,20.420075 64.9811487,19.9470125 L65.2475862,17.91665 C65.2845612,17.6371625 65.2182237,17.4849125 64.8887112,17.253275 L64.5678987,17.02925 L63.8131737,18.1069625 L64.4819862,18.5745875 L63.6707112,19.732775 L60.6942237,17.649125 L61.5054987,16.4909375 Z M70.4648675,23.4418025 L70.92488,24.154115 L75.303155,21.8127275 L74.8300925,21.083015 L76.016555,20.31524 L77.67608,22.879565 L75.1541675,26.06594 C74.8409675,26.4628775 74.5973675,26.6847275 74.5973675,26.6847275 L74.60933,26.7043025 C74.60933,26.7043025 74.9127425,26.5716275 75.403205,26.44874 L79.34213,25.45259 L81.001655,28.0180025 L79.81628,28.7857775 L79.3432175,28.0549775 L75.4151675,31.09019 L75.8762675,31.801415 L74.689805,32.5702775 L72.775805,29.613365 L73.9622675,28.8445025 L74.3820425,29.4926525 L76.6266425,27.81899 C76.88873,27.6243275 77.38028,27.38399 77.38028,27.38399 L77.356355,27.347015 C77.356355,27.347015 76.8898175,27.5460275 76.5505175,27.6221525 L73.61318,28.30619 L72.727955,26.9370275 L74.5538675,24.5380025 C74.7626675,24.2596025 75.13568,23.9159525 75.13568,23.9159525 L75.111755,23.8789775 C75.111755,23.8789775 74.6908925,24.2291525 74.4059675,24.3879275 L71.9590925,25.7516525 L72.3788675,26.398715 L71.192405,27.16649 L69.278405,24.210665 L70.4648675,23.4418025 Z M17.5289563,68.220485 L17.0863437,68.60546 C16.7774937,68.87516 16.9438812,69.4199975 17.3506062,69.886535 C17.7584187,70.35416 18.2151687,70.543385 18.5327187,70.26716 C18.9916438,69.86696 18.5599062,69.08396 18.2651937,68.24006 C17.8682562,67.16126 17.5996437,66.06071 18.6936688,65.10806 C20.0204187,63.953135 21.3819687,64.6741475 22.3052562,65.73446 C23.1926562,66.75236 23.6874688,68.09651 22.9283937,68.7587975 L22.0431687,69.5287475 L20.8806312,68.1932975 L21.2558187,67.86596 C21.4896313,67.6625975 21.3384687,67.2362975 21.0122187,66.86111 C20.7142438,66.5185475 20.3521062,66.3053975 20.0432562,66.57401 C19.6343562,66.9296225 19.8877437,67.5755975 20.1683187,68.285735 C20.6435562,69.47111 21.0600687,70.708685 19.9323312,71.6885225 C18.5718688,72.8738975 17.0461062,72.148535 16.0575687,71.013185 C15.0907812,69.9028475 14.6383812,68.3890475 15.5986437,67.5538475 L16.3664187,66.885035 L17.5289563,68.220485 Z M31.8676437,77.567765 L32.0873187,76.0681025 C32.1634437,75.56894 32.2830687,75.24704 32.2830687,75.24704 L32.2428312,75.2285525 C32.2428312,75.2285525 32.0829687,75.5330525 31.7643312,75.923465 L30.7866687,77.08709 L31.8676437,77.567765 Z M26.6954937,78.063665 L27.2914437,78.3279275 L31.8926562,73.2928025 L33.9545562,74.2106525 L33.2944437,80.999915 L33.8903937,81.2641775 L33.3064062,82.5778775 L30.2842437,81.2337275 L30.8693187,79.9200275 L31.4957187,80.1984275 L31.6501437,79.1174525 L29.7905187,78.289865 L29.0912562,79.129415 L29.7176562,79.407815 L29.1325812,80.721515 L26.1115062,79.377365 L26.6954937,78.063665 Z M43.2694287,82.9367525 L44.1546537,82.9193525 L44.0589537,77.994065 L43.1737287,78.011465 L43.1432788,76.4617775 L46.8951537,76.388915 L46.9256038,77.9386025 L46.0403787,77.954915 L46.1339037,82.770365 L47.8391037,82.7366525 L47.8162662,81.5752025 L49.4768787,81.5425775 L49.5290787,84.253715 L43.2977038,84.375515 L43.2694287,82.9367525 Z M58.8629825,80.56796 L59.6612075,80.18516 L57.4862075,75.64811 L56.6879825,76.03091 L56.06702,74.7335225 L61.5621575,72.100685 L62.5713575,74.2049975 L61.0749575,74.92166 L60.7356575,74.2136975 L59.3197325,74.8922975 L60.01247,76.3386725 L62.0972075,75.33926 L62.76602,76.73561 L60.6812825,77.7350225 L61.3990325,79.2314225 L62.9345825,78.495185 L62.5952825,77.786135 L64.090595,77.0694725 L65.0987075,79.173785 L59.483945,81.86426 L58.8629825,80.56796 Z M72.2900188,69.6048725 L72.7391562,69.982235 C73.0512687,70.24541 73.5634812,69.99746 73.9625937,69.52331 C74.3617062,69.04916 74.4769812,68.568485 74.1550813,68.2976975 C73.6896313,67.9061975 72.9838438,68.4542975 72.1954062,68.87516 C71.1916437,69.4330475 70.1465562,69.8680475 69.0383937,68.93606 C67.6920687,67.8039725 68.1944937,66.34781 69.0982062,65.27336 C69.9671187,64.240235 71.2177437,63.544235 71.9876937,64.1912975 L72.8848812,64.9460225 L71.7462687,66.29996 L71.3645562,65.980235 C71.1285687,65.7812225 70.7305437,65.99546 70.4097312,66.376085 C70.1182812,66.724085 69.9638562,67.11341 70.2770563,67.376585 C70.6913938,67.7256725 71.2895187,67.3754975 71.9474563,66.989435 C73.0436562,66.3380225 74.2007562,65.7355475 75.3437188,66.6968975 C76.7226687,67.85726 76.2430813,69.47546 75.2741187,70.6271225 C74.3279937,71.752685 72.9022813,72.4323725 71.9289687,71.6145725 L71.1514062,70.95881 L72.2900188,69.6048725 Z M65.057165,61.0498363 L58.9508525,61.0498363 L58.9508525,61.0781113 L57.1521275,61.0781113 L57.1521275,61.0498363 L51.794015,61.0498363 L51.0469025,61.0498363 L45.6877025,61.0498363 L45.6877025,61.0781113 L43.890065,61.0781113 L43.890065,61.0498363 L38.530865,61.0498363 L37.7837525,61.0498363 L32.42564,61.0498363 L32.42564,61.0781113 L30.626915,61.0781113 L30.626915,61.0498363 L24.5206025,61.0498363 C24.5206025,58.6692988 27.18389,56.7085363 30.626915,56.4127363 L30.626915,51.0372238 C30.213665,50.9556613 28.9315025,50.6359363 27.54929,49.5995488 C25.8734525,48.3413113 26.3780525,44.8471738 26.3780525,44.8471738 C26.3780525,44.8471738 26.516165,44.7025363 29.030465,46.1684863 C29.9037275,46.6785238 30.3757025,47.4256363 30.626915,48.1825363 L30.626915,45.5366488 C30.213665,45.4550863 28.9315025,45.1353613 27.54929,44.0989738 C25.8734525,42.8418238 26.3780525,39.3465988 26.3780525,39.3465988 C26.3780525,39.3465988 26.516165,39.2019613 29.030465,40.6689988 C29.9037275,41.1790363 30.3757025,41.9261488 30.626915,42.6830488 L30.626915,40.0371613 C30.213665,39.9555988 28.9315025,39.6358738 27.54929,38.5994863 C25.8734525,37.3423363 26.3780525,33.8471113 26.3780525,33.8471113 C26.3780525,33.8471113 26.516165,33.7024738 29.030465,35.1684238 C29.9037275,35.6784613 30.3757025,36.4255738 30.626915,37.1835613 L30.626915,35.0596738 C30.070115,34.4691613 29.4600275,33.5752363 29.4600275,32.4844738 C29.4600275,30.4780363 31.3479275,29.1284488 31.3479275,29.1284488 C31.3479275,29.1284488 33.2401775,30.7031488 33.2401775,32.4844738 C33.2401775,33.3457738 32.83889,34.1570488 32.42564,34.7660488 L32.42564,36.8409988 C32.69969,36.2058988 33.1510025,35.6012488 33.8926775,35.1684238 C36.4069775,33.7024738 36.54509,33.8471113 36.54509,33.8471113 C36.54509,33.8471113 37.04969,37.3423363 35.3738525,38.5994863 C34.124315,39.5358238 32.945465,39.8892613 32.42564,40.0099738 L32.42564,42.3415738 C32.69969,41.7053863 33.1510025,41.1018238 33.8926775,40.6689988 C36.4069775,39.2019613 36.54509,39.3465988 36.54509,39.3465988 C36.54509,39.3465988 37.04969,42.8418238 35.3738525,44.0989738 C34.124315,45.0363988 32.945465,45.3898363 32.42564,45.5094613 L32.42564,47.8410613 C32.69969,47.2059613 33.1510025,46.6013113 33.8926775,46.1684863 C36.4069775,44.7025363 36.54509,44.8471738 36.54509,44.8471738 C36.54509,44.8471738 37.04969,48.3413113 35.3738525,49.5995488 C34.124315,50.5369738 32.945465,50.8904113 32.42564,51.0100363 L32.42564,56.4127363 C35.1085025,56.6432863 37.3139525,57.8852113 38.1578525,59.5512613 C39.0017525,57.8852113 41.206115,56.6432863 43.890065,56.4127363 L43.890065,51.0372238 C43.476815,50.9545738 42.1946525,50.6359363 40.81244,49.5995488 C39.1366025,48.3413113 39.640115,44.8471738 39.640115,44.8471738 C39.640115,44.8471738 39.779315,44.7025363 42.2925275,46.1684863 C43.1668775,46.6785238 43.6388525,47.4256363 43.890065,48.1825363 L43.890065,45.5366488 C43.476815,45.4550863 42.1946525,45.1353613 40.81244,44.0989738 C39.1366025,42.8418238 39.640115,39.3465988 39.640115,39.3465988 C39.640115,39.3465988 39.779315,39.2019613 42.2925275,40.6689988 C43.1668775,41.1790363 43.6388525,41.9261488 43.890065,42.6830488 L43.890065,40.0371613 C43.476815,39.9555988 42.1946525,39.6358738 40.81244,38.5994863 C39.1366025,37.3423363 39.640115,33.8471113 39.640115,33.8471113 C39.640115,33.8471113 39.779315,33.7024738 42.2925275,35.1684238 C43.1668775,35.6784613 43.6388525,36.4255738 43.890065,37.1835613 L43.890065,35.0596738 C43.3321775,34.4691613 42.72209,33.5752363 42.72209,32.4844738 C42.72209,30.4780363 44.6110775,29.1284488 44.6110775,29.1284488 C44.6110775,29.1284488 46.50224,30.7031488 46.50224,32.4844738 C46.50224,33.3457738 46.10204,34.1570488 45.6877025,34.7660488 L45.6877025,36.8409988 C45.96284,36.2058988 46.4141525,35.6012488 47.1558275,35.1684238 C49.6701275,33.7024738 49.80824,33.8471113 49.80824,33.8471113 C49.80824,33.8471113 50.3117525,37.3423363 48.635915,38.5994863 C47.3863775,39.5358238 46.2075275,39.8892613 45.6877025,40.0099738 L45.6877025,42.3415738 C45.96284,41.7053863 46.4141525,41.1018238 47.1558275,40.6689988 C49.6701275,39.2019613 49.80824,39.3465988 49.80824,39.3465988 C49.80824,39.3465988 50.3117525,42.8418238 48.635915,44.0989738 C47.3863775,45.0363988 46.2075275,45.3898363 45.6877025,45.5094613 L45.6877025,47.8410613 C45.96284,47.2059613 46.4141525,46.6013113 47.1558275,46.1684863 C49.6701275,44.7025363 49.80824,44.8471738 49.80824,44.8471738 C49.80824,44.8471738 50.3117525,48.3413113 48.635915,49.5995488 C47.3863775,50.5369738 46.2075275,50.8904113 45.6877025,51.0100363 L45.6877025,56.4127363 C48.3716525,56.6432863 50.5771025,57.8852113 51.419915,59.5512613 C52.263815,57.8852113 54.469265,56.6432863 57.1521275,56.4127363 L57.1521275,51.0361363 C56.739965,50.9545738 55.456715,50.6348488 54.07559,49.5995488 C52.398665,48.3413113 52.903265,44.8471738 52.903265,44.8471738 C52.903265,44.8471738 53.042465,44.7025363 55.5556775,46.1684863 C56.42894,46.6785238 56.900915,47.4256363 57.1521275,48.1814488 L57.1521275,45.5366488 C56.739965,45.4550863 55.456715,45.1353613 54.07559,44.0989738 C52.398665,42.8418238 52.903265,39.3465988 52.903265,39.3465988 C52.903265,39.3465988 53.042465,39.2019613 55.5556775,40.6689988 C56.42894,41.1790363 56.900915,41.9250613 57.1521275,42.6819613 L57.1521275,40.0360738 C56.739965,39.9555988 55.456715,39.6358738 54.07559,38.5994863 C52.398665,37.3423363 52.903265,33.8471113 52.903265,33.8471113 C52.903265,33.8471113 53.042465,33.7024738 55.5556775,35.1684238 C56.42894,35.6784613 56.900915,36.4244863 57.1521275,37.1824738 L57.1521275,35.0596738 C56.5953275,34.4691613 55.98524,33.5741488 55.98524,32.4844738 C55.98524,30.4780363 57.8742275,29.1284488 57.8742275,29.1284488 C57.8742275,29.1284488 59.76539,30.7031488 59.76539,32.4844738 C59.76539,33.3457738 59.36519,34.1570488 58.9508525,34.7671363 L58.9508525,36.8420863 C59.2249025,36.2058988 59.676215,35.6012488 60.41789,35.1684238 C62.93219,33.7024738 63.07139,33.8471113 63.07139,33.8471113 C63.07139,33.8471113 63.5749025,37.3423363 61.899065,38.5994863 C60.6495275,39.5369113 59.4706775,39.8892613 58.9508525,40.0099738 L58.9508525,42.3415738 C59.2249025,41.7064738 59.676215,41.1018238 60.41789,40.6689988 C62.93219,39.2019613 63.07139,39.3465988 63.07139,39.3465988 C63.07139,39.3465988 63.5749025,42.8418238 61.899065,44.0989738 C60.6495275,45.0363988 59.4706775,45.3898363 58.9508525,45.5094613 L58.9508525,47.8421488 C59.2249025,47.2070488 59.676215,46.6013113 60.41789,46.1684863 C62.93219,44.7025363 63.07139,44.8471738 63.07139,44.8471738 C63.07139,44.8471738 63.5749025,48.3413113 61.899065,49.5995488 C60.6495275,50.5369738 59.4706775,50.8904113 58.9508525,51.0100363 L58.9508525,56.4127363 C62.3938775,56.7085363 65.057165,58.6692988 65.057165,61.0498363 Z M11.2144962,36.4972638 C11.4809736,36.4972638 11.6969962,36.7132864 11.6969962,36.9797638 L11.6969962,36.9906388 L11.6861902,37.0921824 C11.1943275,39.3769988 10.9317293,41.7022549 10.9074457,44.055654 C10.8518074,49.462021 12.0431713,54.706855 14.3532774,59.471929 C14.4695249,59.7117137 14.3693783,60.0003348 14.1295935,60.1165824 C13.8898088,60.2328299 13.6011877,60.1326833 13.4849401,59.8928985 C11.1101553,54.9944113 9.88531368,49.6021959 9.94249693,44.0457103 C9.96732709,41.6393447 10.2345967,39.2615118 10.7350453,36.9252182 C10.7621379,36.684421 10.9664606,36.4972638 11.2144962,36.4972638 Z M79.2043289,36.2997289 C79.1423576,36.0405576 79.3022198,35.7802201 79.5613911,35.7182489 C79.8205624,35.6562776 80.0808999,35.8161398 80.1428711,36.0753111 C80.8206883,38.9100231 81.1532082,41.8238599 81.1228626,44.7727992 C81.0688079,50.0907023 79.849473,55.2364243 77.5836367,59.9076714 C77.4673386,60.1474316 77.1786963,60.2475173 76.9389361,60.1312192 C76.6991759,60.0149211 76.5990902,59.7262788 76.7153883,59.4865186 C78.9192509,54.9430363 80.1053129,49.9377293 80.157913,44.7629302 C80.1874425,41.8932966 79.8639015,39.0581403 79.2043289,36.2997289 Z"/>
  </g>
</svg>
