<svg xmlns="http://www.w3.org/2000/svg" width="90" height="90" viewBox="0 0 90 90">
  <g fill="none" fill-rule="evenodd">
    <path fill="#6D6E71" d="M45.0002388,4.9998806 C67.0909851,4.9998806 85.0002388,22.9091343 85.0002388,44.9998806 C85.0002388,67.0906269 67.0909851,84.9998806 45.0002388,84.9998806 C22.9082985,84.9998806 5.00023881,67.0906269 5.00023881,44.9998806 C5.00023881,22.9091343 22.9082985,4.9998806 45.0002388,4.9998806"/>
    <path stroke="#FFF" stroke-width="1.255" d="M45.0002388,9.17898507 C64.7829254,9.17898507 80.8211343,25.217194 80.8211343,44.9998806 C80.8211343,64.7837612 64.7829254,80.8207761 45.0002388,80.8207761 C25.2163582,80.8207761 9.17934328,64.7837612 9.17934328,44.9998806 C9.17934328,25.217194 25.2163582,9.17898507 45.0002388,9.17898507 Z"/>
    <path fill="#FFF" d="M67.2536119,62.5086567 C67.2536119,59.8949254 64.3294328,57.7420896 60.5491343,57.4173134 L60.5491343,51.4853731 C61.1198806,51.3540299 62.414209,50.9659701 63.7861493,49.9367164 C65.6261493,48.5564179 65.0733134,44.718806 65.0733134,44.718806 C65.0733134,44.718806 64.9204776,44.56 62.1598806,46.1695522 C61.3455522,46.6447761 60.8500299,47.3098507 60.5491343,48.0071642 L60.5491343,45.4459701 C61.1198806,45.3146269 62.414209,44.9265672 63.7861493,43.8973134 C65.6261493,42.5170149 65.0733134,38.679403 65.0733134,38.679403 C65.0733134,38.679403 64.9204776,38.520597 62.1598806,40.1313433 C61.3455522,40.6065672 60.8500299,41.2704478 60.5491343,41.9689552 L60.5491343,39.4077612 C61.1198806,39.2752239 62.414209,38.8883582 63.7861493,37.8591045 C65.6261493,36.478806 65.0733134,32.641194 65.0733134,32.641194 C65.0733134,32.641194 64.9204776,32.4823881 62.1598806,34.0931343 C61.3455522,34.5671642 60.8500299,35.2310448 60.5491343,35.9295522 L60.5491343,33.6513433 C61.0040597,32.9814925 61.4434627,32.0907463 61.4434627,31.1450746 C61.4434627,29.1892537 59.3670448,27.4602985 59.3670448,27.4602985 C59.3670448,27.4602985 57.2930149,28.9420896 57.2930149,31.1450746 C57.2930149,32.3414925 57.9628657,33.3241791 58.574209,33.9725373 L58.574209,36.3032836 C58.2983881,35.4710448 57.7801791,34.6519403 56.8213731,34.0931343 C54.0619701,32.4823881 53.9091343,32.641194 53.9091343,32.641194 C53.9091343,32.641194 53.3551045,36.478806 55.1962985,37.8591045 C56.7127164,38.9970149 58.1216716,39.3480597 58.574209,39.4376119 L58.574209,42.3414925 C58.2983881,41.5104478 57.7801791,40.6913433 56.8213731,40.1313433 C54.0619701,38.520597 53.9091343,38.679403 53.9091343,38.679403 C53.9091343,38.679403 53.3551045,42.5170149 55.1962985,43.8973134 C56.7127164,45.0352239 58.1216716,45.3862687 58.574209,45.4758209 L58.574209,48.3797015 C58.2983881,47.5498507 57.7801791,46.7295522 56.8213731,46.1695522 C54.0619701,44.56 53.9091343,44.718806 53.9091343,44.718806 C53.9091343,44.718806 53.3551045,48.5564179 55.1962985,49.9367164 C56.7127164,51.0734328 58.1216716,51.4256716 58.574209,51.5140299 L58.574209,57.4173134 C55.6285373,57.6704478 53.2070448,59.0340299 52.2804776,60.8632836 C51.3551045,59.0340299 48.9336119,57.6704478 45.9867463,57.4173134 L45.9867463,51.4853731 C46.5574925,51.3540299 47.8518209,50.9659701 49.2237612,49.9367164 C51.0637612,48.5564179 50.5109254,44.718806 50.5109254,44.718806 C50.5109254,44.718806 50.3592836,44.56 47.5986866,46.1695522 C46.7843582,46.6447761 46.2888358,47.3086567 45.9867463,48.0059701 L45.9867463,45.4459701 C46.5574925,45.3146269 47.8518209,44.9265672 49.2237612,43.8973134 C51.0637612,42.5170149 50.5109254,38.679403 50.5109254,38.679403 C50.5109254,38.679403 50.3592836,38.520597 47.5986866,40.1313433 C46.7843582,40.6065672 46.2888358,41.2692537 45.9867463,41.9677612 L45.9867463,39.4077612 C46.5574925,39.2752239 47.8518209,38.8871642 49.2237612,37.8591045 C51.0637612,36.478806 50.5109254,32.641194 50.5109254,32.641194 C50.5109254,32.641194 50.3592836,32.4823881 47.5986866,34.0931343 C46.7843582,34.5671642 46.2888358,35.2310448 45.9867463,35.9283582 L45.9867463,33.6501493 C46.4416716,32.9814925 46.8810746,32.0907463 46.8810746,31.1450746 C46.8810746,29.1892537 44.8046567,27.4602985 44.8046567,27.4602985 C44.8046567,27.4602985 42.7306269,28.9420896 42.7306269,31.1450746 C42.7306269,32.3426866 43.4004776,33.3241791 44.0130149,33.9725373 L44.0130149,36.3044776 C43.737194,35.4722388 43.2189851,34.6519403 42.2589851,34.0931343 C39.4995821,32.4823881 39.3467463,32.641194 39.3467463,32.641194 C39.3467463,32.641194 38.7939104,36.478806 40.6339104,37.8591045 C42.1515224,38.9970149 43.5592836,39.3480597 44.0130149,39.4376119 L44.0130149,42.3426866 C43.737194,41.5116418 43.2189851,40.6913433 42.2589851,40.1313433 C39.4995821,38.520597 39.3467463,38.679403 39.3467463,38.679403 C39.3467463,38.679403 38.7939104,42.5170149 40.6339104,43.8973134 C42.1515224,45.0352239 43.5592836,45.3862687 44.0130149,45.4758209 L44.0130149,48.3808955 C43.737194,47.5498507 43.2189851,46.7295522 42.2589851,46.1695522 C39.4995821,44.56 39.3467463,44.718806 39.3467463,44.718806 C39.3467463,44.718806 38.7939104,48.5564179 40.6339104,49.9367164 C42.1515224,51.0746269 43.5592836,51.4256716 44.0130149,51.5152239 L44.0130149,57.4173134 C41.0661493,57.6704478 38.6458507,59.0340299 37.7192836,60.8632836 C36.7927164,59.0340299 34.3712239,57.6704478 31.4255522,57.4173134 L31.4255522,51.4853731 C31.9962985,51.3540299 33.2906269,50.9659701 34.6625672,49.9367164 C36.5025672,48.5564179 35.9485373,44.718806 35.9485373,44.718806 C35.9485373,44.718806 35.7968955,44.56 33.0362985,46.1695522 C32.2219701,46.6447761 31.7264478,47.3086567 31.4255522,48.0059701 L31.4255522,45.4459701 C31.9962985,45.3146269 33.2906269,44.9265672 34.6625672,43.8973134 C36.5025672,42.5170149 35.9485373,38.679403 35.9485373,38.679403 C35.9485373,38.679403 35.7968955,38.520597 33.0362985,40.1313433 C32.2219701,40.6065672 31.7264478,41.2692537 31.4255522,41.9677612 L31.4255522,39.4077612 C31.9962985,39.2752239 33.2906269,38.8871642 34.6625672,37.8591045 C36.5025672,36.478806 35.9485373,32.641194 35.9485373,32.641194 C35.9485373,32.641194 35.7968955,32.4823881 33.0362985,34.0931343 C32.2219701,34.5671642 31.7264478,35.2310448 31.4255522,35.9283582 L31.4255522,33.6501493 C31.8792836,32.9814925 32.3198806,32.0907463 32.3198806,31.1450746 C32.3198806,29.1892537 30.2422687,27.4602985 30.2422687,27.4602985 C30.2422687,27.4602985 28.1694328,28.9420896 28.1694328,31.1450746 C28.1694328,32.3426866 28.8392836,33.3241791 29.4506269,33.9725373 L29.4506269,36.3044776 C29.174806,35.4722388 28.656597,34.6519403 27.697791,34.0931343 C24.937194,32.4823881 24.7855522,32.641194 24.7855522,32.641194 C24.7855522,32.641194 24.2315224,36.478806 26.0715224,37.8591045 C27.5891343,38.9970149 28.9968955,39.3480597 29.4506269,39.4376119 L29.4506269,42.3426866 C29.174806,41.5116418 28.656597,40.6913433 27.697791,40.1313433 C24.937194,38.520597 24.7855522,38.679403 24.7855522,38.679403 C24.7855522,38.679403 24.2315224,42.5170149 26.0715224,43.8973134 C27.5891343,45.0352239 28.9968955,45.3862687 29.4506269,45.4758209 L29.4506269,48.3808955 C29.174806,47.5498507 28.656597,46.7295522 27.697791,46.1695522 C24.937194,44.56 24.7855522,44.718806 24.7855522,44.718806 C24.7855522,44.718806 24.2315224,48.5564179 26.0715224,49.9367164 C27.5891343,51.0746269 28.9968955,51.4256716 29.4506269,51.5152239 L29.4506269,57.4173134 C25.6703284,57.7420896 22.7461493,59.8949254 22.7461493,62.5086567 L29.4506269,62.5086567 L29.4506269,62.5397015 L31.4255522,62.5397015 L31.4255522,62.5086567 L37.3085373,62.5086567 L38.1288358,62.5086567 L44.0130149,62.5086567 L44.0130149,62.5397015 L45.9867463,62.5397015 L45.9867463,62.5086567 L51.8709254,62.5086567 L52.6912239,62.5086567 L58.574209,62.5086567 L58.574209,62.5397015 L60.5491343,62.5397015 L60.5491343,62.5086567 L67.2536119,62.5086567 Z"/>
  </g>
</svg>
