<svg xmlns="http://www.w3.org/2000/svg" width="90" height="90" viewBox="0 0 90 90">
  <g fill="none" fill-rule="evenodd">
    <path fill="#6D6E71" d="M45.5002175,1.9997825 C69.52418,1.9997825 89.0002175,21.47582 89.0002175,45.4997825 C89.0002175,69.5248325 69.52418,88.9997825 45.5002175,88.9997825 C21.4751675,88.9997825 2.0002175,69.5248325 2.0002175,45.4997825 C2.0002175,21.47582 21.4751675,1.9997825 45.5002175,1.9997825"/>
    <path fill="#FFF" d="M52.1117825,54.2953737 L55.4177825,50.9893737 L56.2877825,51.8593737 L52.9817825,55.1653737 L52.1117825,54.2953737 Z M48.8057825,54.2953737 L55.4177825,47.6833737 L56.2877825,48.5533737 L49.6757825,55.1653737 L48.8057825,54.2953737 Z M48.8057825,50.9893737 L52.1117825,47.6833737 L52.9817825,48.5533737 L49.6757825,51.8593737 L48.8057825,50.9893737 Z M32.1017825,52.3813737 C32.4497825,52.3813737 32.6237825,52.5553737 32.6237825,52.9033737 C32.6237825,53.2513737 32.4497825,53.4253737 32.1017825,53.4253737 C31.7537825,53.4253737 31.5797825,53.2513737 31.5797825,52.9033737 C31.5797825,52.7293737 31.7537825,52.3813737 32.1017825,52.3813737 Z M61.5077825,58.6453737 L61.3337825,58.6453737 L61.3337825,45.0733737 L41.4977825,45.0733737 L41.4977825,58.6453737 L61.5077825,58.6453737 Z M29.8397825,61.9513737 L39.2357825,61.9513737 L39.2357825,45.0733737 L29.8397825,45.0733737 L29.8397825,61.9513737 Z M63.5957825,61.9513737 L66.9017825,61.9513737 L66.9017825,65.0833737 L23.9237825,65.0833737 L23.9237825,61.9513737 L27.7517825,61.9513737 L27.7517825,42.4633737 L63.5957825,42.4633737 L63.5957825,61.9513737 Z M63.0737825,33.5893737 L66.3797825,38.1133737 C64.1177825,44.5513737 61.3337825,39.6793737 61.3337825,39.6793737 C58.0277825,43.3333737 56.1137825,39.6793737 56.1137825,39.6793737 C52.6337825,43.3333737 50.3717825,39.6793737 50.3717825,39.6793737 C47.2397825,42.2893737 45.6737825,40.7233737 45.1517825,39.8533737 C44.6297825,40.8973737 43.0637825,42.2893737 39.9317825,39.6793737 C39.9317825,39.6793737 37.6697825,43.1593737 34.1897825,39.3313737 C34.1897825,39.3313737 32.4497825,42.9853737 28.9697825,39.3313737 C28.9697825,39.3313737 26.1857825,44.2033737 23.9237825,37.7653737 L27.7517825,33.5893737 L27.7517825,31.3273737 L63.0737825,31.3273737 L63.0737825,33.5893737 Z M14.73158,29.5096175 C15.0284675,28.95608 14.9371175,28.4612675 14.294405,28.1154425 C13.968155,27.940355 13.6190675,27.85553 13.3058675,28.08173 C13.1427425,28.197005 12.980705,28.40363 12.82193,28.7005175 L12.4815425,29.3334425 L14.30093,30.3100175 L14.73158,29.5096175 Z M15.5069675,34.2576425 L15.93218,33.46703 L11.432105,31.050605 L11.0068925,31.842305 L9.7214675,31.1517425 L11.436455,27.9566675 C11.723555,27.4237925 11.997605,26.95943 12.33473,26.6168675 C13.04813,25.904555 14.0431925,25.713155 15.081755,26.269955 C16.0115675,26.7691175 16.4052425,27.5542925 16.404155,28.458005 L16.42373,28.46888 C16.42373,28.46888 16.691255,28.25573 17.082755,28.262255 L18.4236425,28.2807425 C18.6389675,28.2829175 18.77273,28.175255 18.8956175,27.9479675 L19.0282925,27.701105 L20.3137175,28.3916675 L19.6873175,29.558555 C19.3784675,30.1316675 19.118555,30.285005 18.627005,30.276305 L16.512905,30.2491175 C16.221455,30.245855 16.073555,30.3317675 15.8767175,30.698255 L15.6853175,31.0538675 L16.882655,31.69658 L17.28068,30.954905 L18.566105,31.6454675 L16.79348,34.948205 L15.5069675,34.2576425 Z M24.1622712,22.0612212 L24.8898087,21.5337837 L21.8926587,17.3958462 L21.1651212,17.9232837 L20.3092587,16.7411712 L25.3193712,13.1121837 L26.7091962,15.0305337 L25.3443837,16.0179837 L24.8778462,15.3730962 L23.5858962,16.3083462 L24.5418087,17.6263962 L26.4416712,16.2496212 L27.3638712,17.5230837 L25.4640087,18.8998587 L26.4514587,20.2635837 L27.8521587,19.2500337 L27.3845337,18.6040587 L28.7482587,17.6155212 L30.1391712,19.5338712 L25.0192212,23.2433337 L24.1622712,22.0612212 Z M37.8967437,14.99084 L38.7808812,14.832065 L37.8945687,9.9133025 L36.9549687,10.0829525 L37.1561562,11.1987275 L35.4988063,11.49779 L35.0192187,8.8345025 L42.1912812,7.541465 L42.6719562,10.20584 L41.0135187,10.503815 L40.8123312,9.38804 L39.8727312,9.5566025 L40.7590437,14.475365 L41.6431812,14.3155025 L41.9020062,15.75209 L38.1555687,16.4274275 L37.8967437,14.99084 Z M55.1024075,12.8955537 L55.0871825,11.3567412 C55.0850075,10.8456162 55.1546075,10.5030537 55.1546075,10.5030537 L55.1111075,10.4921787 C55.1111075,10.4921787 54.999095,10.8216912 54.74027,11.2643037 L53.9431325,12.5823537 L55.1024075,12.8955537 Z M49.9955075,14.2038162 L50.6349575,14.3767287 L54.4564325,8.60754125 L56.66732,9.20240375 L57.07187,16.1112912 L57.7102325,16.2831162 L57.330695,17.6925162 L54.0910325,16.8181662 L54.47057,15.4109412 L55.142645,15.5914662 L55.12742,14.4833037 L53.1340325,13.9460787 L52.5641825,14.8965537 L53.2362575,15.0770787 L52.85672,16.4864787 L49.61597,15.6132162 L49.9955075,14.2038162 Z M64.1629137,20.0593512 L64.8610887,20.6237637 L68.0703012,16.6522137 L67.3721262,16.0878012 L68.2888887,14.9535387 L71.2479762,17.3438637 L70.3301262,18.4781262 L69.6319512,17.9148012 L66.4238262,21.8863512 L67.1220012,22.4496762 L66.2052387,23.5850262 L63.2461512,21.1936137 L64.1629137,20.0593512 Z M72.38561,28.46192 L72.8086475,29.25362 L77.20976,26.898095 L76.7867225,26.106395 L78.17111,25.3658075 L79.965485,28.7174825 L78.5810975,29.4591575 L78.15806,28.6674575 L73.85591,30.9707825 L74.6704475,32.49437 L75.70901,31.93757 L76.502885,33.4220075 L74.079935,34.7183075 L71.0990975,29.1503075 L72.38561,28.46192 Z M81.3193987,38.6156967 C81.2816767,38.4204854 81.409347,38.2316557 81.6045583,38.1939337 C81.7997696,38.1562117 81.9885993,38.283882 82.0263213,38.4790933 C82.4702916,40.7766396 82.696235,43.1270022 82.696235,45.49652 C82.696235,66.0387285 66.0414223,82.690145 45.50261,82.690145 C24.9566625,82.690145 8.308985,66.0424675 8.308985,45.49652 C8.308985,43.1674332 8.51791021,40.893997 8.93512603,38.6871449 C8.97206011,38.491783 9.1603732,38.3633519 9.35573508,38.400286 C9.55109696,38.4372201 9.67952806,38.6255332 9.64259397,38.8208951 C9.23379597,40.9832214 9.028985,43.2118881 9.028985,45.49652 C9.028985,65.6448225 25.3543075,81.970145 45.50261,81.970145 C65.6438102,81.970145 81.976235,65.6410506 81.976235,45.49652 C81.976235,43.1729448 81.7546886,40.8683218 81.3193987,38.6156967 Z"/>
  </g>
</svg>
