<svg xmlns="http://www.w3.org/2000/svg" width="90" height="90" viewBox="0 0 90 90">
  <g fill="none" fill-rule="evenodd">
    <path fill="#6D6E71" d="M85,44.9998806 C85,67.0906269 67.0907463,84.9998806 45,84.9998806 C22.9092537,84.9998806 5,67.0906269 5,44.9998806 C5,22.9091343 22.9092537,4.9998806 45,4.9998806 C67.0907463,4.9998806 85,22.9091343 85,44.9998806 Z"/>
    <path stroke="#FFF" stroke-width="1.255" d="M45,9.17898507 C64.7826866,9.17898507 80.8208955,25.217194 80.8208955,44.9998806 C80.8208955,64.7837612 64.7826866,80.8207761 45,80.8207761 C25.2173134,80.8207761 9.17910448,64.7837612 9.17910448,44.9998806 C9.17910448,25.217194 25.2173134,9.17898507 45,9.17898507 Z"/>
    <path fill="#FFF" d="M52.3553433,50.6838209 L55.985194,47.0539701 L56.9404179,48.009194 L53.3105672,51.6390448 L52.3553433,50.6838209 Z M48.7254925,50.6838209 L55.985194,43.4241194 L56.9404179,44.3793433 L49.6807164,51.6390448 L48.7254925,50.6838209 Z M48.7254925,47.0539701 L52.3553433,43.4241194 L53.3105672,44.3793433 L49.6807164,48.009194 L48.7254925,47.0539701 Z M30.385194,48.5823284 C30.7672836,48.5823284 30.9583284,48.7733731 30.9583284,49.1554627 C30.9583284,49.5375522 30.7672836,49.728597 30.385194,49.728597 C30.0031045,49.728597 29.8120597,49.5375522 29.8120597,49.1554627 C29.8120597,48.9644179 30.0031045,48.5823284 30.385194,48.5823284 Z M62.6717612,55.4599403 L40.7016119,55.4599403 L40.7016119,40.5584478 L62.4807164,40.5584478 L62.4807164,55.4599403 L62.6717612,55.4599403 Z M27.9016119,59.089791 L38.2180299,59.089791 L38.2180299,40.5584478 L27.9016119,40.5584478 L27.9016119,59.089791 Z M64.9642985,59.089791 L64.9642985,37.6927761 L25.6090746,37.6927761 L25.6090746,59.089791 L21.4060896,59.089791 L21.4060896,62.528597 L68.5941493,62.528597 L68.5941493,59.089791 L64.9642985,59.089791 Z M64.3911642,27.9494925 L64.3911642,25.4659104 L25.6090746,25.4659104 L25.6090746,27.9494925 L21.4060896,32.5345672 C23.8896716,39.6032239 26.9463881,34.2539701 26.9463881,34.2539701 C30.7672836,38.2659104 32.6777313,34.2539701 32.6777313,34.2539701 C36.4986269,38.4569552 38.982209,34.6360597 38.982209,34.6360597 C42.4210149,37.5017313 44.1404179,35.9733731 44.7135522,34.8271045 C45.2866866,35.7823284 47.0060896,37.5017313 50.4448955,34.6360597 C50.4448955,34.6360597 52.9284776,38.648 56.7493731,34.6360597 C56.7493731,34.6360597 58.8508657,38.648 62.4807164,34.6360597 C62.4807164,34.6360597 65.5374328,39.9853134 68.0210149,32.9166567 L64.3911642,27.9494925 Z"/>
  </g>
</svg>
