<svg xmlns="http://www.w3.org/2000/svg" width="90" height="90" viewBox="0 0 90 90">
  <g fill="none" fill-rule="evenodd">
    <path fill="#6D6E71" d="M45.5002175,1.9997825 C69.52418,1.9997825 89.0002175,21.47582 89.0002175,45.4997825 C89.0002175,69.5248325 69.52418,88.9997825 45.5002175,88.9997825 C21.4751675,88.9997825 2.0002175,69.5248325 2.0002175,45.4997825 C2.0002175,21.47582 21.4751675,1.9997825 45.5002175,1.9997825"/>
    <path fill="#FFF" d="M32.4502175,56.9838913 C32.9722175,56.8098913 33.4942175,56.4618913 33.4942175,55.9398913 C33.4942175,55.4178913 33.1462175,54.8958913 32.4502175,54.8958913 C31.9282175,54.8958913 31.4062175,55.2438913 31.4062175,55.9398913 C31.4062175,56.4618913 31.7542175,56.9838913 32.4502175,56.9838913 Z M32.4502175,52.1118913 C34.5382175,52.1118913 36.1042175,53.6778913 36.2782175,55.9398913 C36.2782175,58.0278913 34.5382175,59.7678913 32.4502175,59.7678913 C30.3622175,59.7678913 28.6222175,58.0278913 28.6222175,55.9398913 C28.6222175,53.8518913 30.3622175,52.1118913 32.4502175,52.1118913 Z M60.1162175,56.9838913 C60.6382175,56.9838913 61.1602175,56.4618913 61.1602175,55.9398913 C61.1602175,55.4178913 60.6382175,54.8958913 60.1162175,54.8958913 C59.5942175,54.8958913 59.0722175,55.4178913 59.0722175,55.9398913 C59.0722175,56.4618913 59.5942175,56.9838913 60.1162175,56.9838913 Z M60.1162175,52.1118913 C62.2042175,52.1118913 63.9442175,53.8518913 63.9442175,55.9398913 C63.9442175,58.0278913 62.2042175,59.7678913 60.1162175,59.7678913 C58.0282175,59.7678913 56.2882175,58.0278913 56.2882175,55.9398913 C56.2882175,53.8518913 58.0282175,52.1118913 60.1162175,52.1118913 Z M63.4222175,43.7598913 C63.5962175,43.5858913 63.5962175,43.0638913 63.4222175,42.7158913 L59.7682175,38.3658913 C59.4202175,38.1918913 59.0722175,38.0178913 58.7242175,38.0178913 L54.8962175,38.0178913 L54.7222175,38.0178913 C54.3742175,38.1918913 54.0262175,38.5398913 54.0262175,39.0618913 L54.0262175,43.2378913 C54.0262175,43.9338913 54.3742175,44.2818913 55.0702175,44.2818913 L62.5522175,44.2818913 C62.9002175,44.2818913 63.2482175,44.1078913 63.4222175,43.7598913 Z M67.5982175,45.1518913 C67.9462175,45.3258913 68.1202175,45.8478913 68.1202175,46.5438913 L68.1202175,54.7218913 C68.1202175,55.5918913 67.7722175,55.9398913 66.9022175,55.9398913 L66.3802175,55.9398913 C65.8582175,55.9398913 65.3362175,55.4178913 65.3362175,54.8958913 C64.8142175,52.2858913 62.3782175,50.3718913 59.7682175,50.7198913 C57.6802175,50.7198913 55.7662175,52.2858913 55.2442175,54.3738913 C55.0702175,55.7658913 54.3742175,55.7658913 52.9822175,55.5918913 C52.6342175,55.5918913 52.2862175,55.2438913 52.2862175,54.8958913 L52.2862175,54.3738913 L52.2862175,37.6698913 C52.2862175,36.4518913 52.4602175,36.2778913 53.6782175,36.2778913 L59.4202175,36.2778913 C59.9422175,36.2778913 60.2902175,36.4518913 60.6382175,36.7998913 L67.5982175,45.1518913 Z M50.5462175,32.6238913 L50.5462175,54.3738913 C50.5462175,55.2438913 50.1982175,55.5918913 49.3282175,55.5918913 L38.5402175,55.5918913 C37.6702175,55.5918913 37.4962175,55.4178913 37.1482175,54.5478913 C36.6262175,51.7638913 34.0162175,50.0238913 31.2322175,50.5458913 L30.8842175,50.5458913 C28.7962175,50.8938913 27.4042175,52.6338913 27.0562175,54.5478913 C27.0562175,55.2438913 26.7082175,55.4178913 26.0122175,55.4178913 L24.0982175,55.4178913 C23.5762175,55.4178913 23.2282175,55.2438913 23.0542175,54.7218913 L23.0542175,31.9278913 C23.2282175,31.5798913 23.5762175,31.2318913 24.0982175,31.2318913 L49.1542175,31.2318913 C50.1982175,31.4058913 50.5462175,31.5798913 50.5462175,32.6238913 Z M6.5642375,48.7049713 L6.7643375,45.2641213 L8.174825,45.3467713 L8.122625,46.2472213 L11.6048,45.7306588 C11.9886875,45.6773713 12.424775,45.6806338 12.424775,45.6806338 L12.42695,45.6371338 C12.42695,45.6371338 11.9952125,45.5794963 11.620025,45.4598713 L6.8382875,43.9841338 L6.926375,42.4866463 L11.846225,41.5742338 C12.2312,41.4991963 12.6672875,41.4915838 12.6672875,41.4915838 L12.67055,41.4480838 C12.67055,41.4480838 12.237725,41.4013213 11.8625375,41.3034463 L8.4630125,40.3866838 L8.4108125,41.2882213 L7.000325,41.2055713 L7.1993375,37.7658088 L8.6109125,37.8473713 L8.57285,38.4987838 L14.8325,40.4084338 L14.7074375,42.5464588 L10.67825,43.3033588 C10.293275,43.3794838 9.8136875,43.3838338 9.8136875,43.3838338 L9.8115125,43.4273338 C9.8115125,43.4273338 10.28675,43.4871463 10.66085,43.6078588 L14.57585,44.8258588 L14.4507875,46.9627963 L8.013875,48.1362088 L7.974725,48.7865338 L6.5642375,48.7049713 Z M15.24662,33.3328325 L15.6740075,32.574845 L11.3631575,30.143195 L10.93577,30.9011825 L9.7036325,30.20627 L11.5154075,26.9948825 L12.747545,27.689795 L12.3201575,28.4477825 L13.8361325,29.3025575 L15.20312,26.876345 L13.687145,26.02157 L13.2597575,26.7795575 L12.0287075,26.084645 L13.839395,22.8732575 L15.0715325,23.56817 L14.644145,24.3261575 L18.954995,26.75672 L19.3823825,25.9987325 L20.61452,26.693645 L18.802745,29.90612 L17.571695,29.2112075 L17.9990825,28.45322 L16.52987,27.624545 L15.161795,30.04967 L16.6310075,30.878345 L17.058395,30.1203575 L18.289445,30.81527 L16.4787575,34.027745 L15.24662,33.3328325 Z M26.1545713,19.4231638 C27.0713338,18.7423888 27.2116213,17.3634388 26.4014338,16.2726763 C25.6216963,15.2254138 24.2873338,14.9970388 23.3705713,15.6789013 C22.4548963,16.3596763 22.2874213,17.7027388 23.0671588,18.7510888 C23.8773463,19.8418513 25.2378088,20.1039388 26.1545713,19.4231638 Z M22.3657213,14.3260513 C24.2688463,12.9112138 26.6852713,13.2831388 28.0152838,15.0720763 C29.3779213,16.9056013 29.0625463,19.3611763 27.1605088,20.7760138 C25.2573838,22.1897638 22.8148588,21.7841263 21.4522213,19.9506013 C20.1222088,18.1616638 20.4625963,15.7398013 22.3657213,14.3260513 Z M34.5360425,14.94038 L35.3777675,14.720705 L34.1597675,10.040105 L33.3180425,10.2586925 L32.934155,8.78513 L36.501155,7.8574925 L36.883955,9.3299675 L36.04223,9.5496425 L37.2330425,14.1258425 L38.8534175,13.7038925 L38.5663175,12.60008 L40.14428,12.189005 L40.8152675,14.76638 L34.8927425,16.3073675 L34.5360425,14.94038 Z M45.8002588,13.0325787 L46.6659088,13.1217537 L47.1715963,8.19864125 L46.3059463,8.10946625 L46.4505838,6.70332875 L52.4122588,7.31559125 L52.1773588,9.59825375 L50.5548088,9.43186625 L50.6331088,8.66409125 L49.0964713,8.50531625 L48.9355213,10.0745787 L51.1964338,10.3073037 L51.0409213,11.8221912 L48.7800088,11.5894662 L48.6136213,13.2120162 L50.2796713,13.3838412 L50.3579713,12.6149787 L51.9816088,12.7824537 L51.7467088,15.0651162 L45.6556213,14.4387162 L45.8002588,13.0325787 Z M59.3579038,14.7784513 L59.1023413,15.2950138 C58.9229038,15.6549763 59.2796038,16.0867138 59.8255288,16.3575013 C60.3703663,16.6272013 60.8564788,16.6261138 61.0402663,16.2552763 C61.3056163,15.7202263 60.6183163,15.1732138 60.0332413,14.5185388 C59.2665538,13.6898638 58.6075288,12.7926763 59.2393663,11.5159513 C60.0071413,9.96843875 61.5144163,10.1087263 62.7519913,10.7220763 C63.9406288,11.3115013 64.8965413,12.3435388 64.4571913,13.2298513 L63.9460663,14.2618888 L62.3876788,13.4897638 L62.6040913,13.0515013 C62.7400288,12.7785388 62.4420538,12.4490263 62.0037913,12.2315263 C61.6035913,12.0336013 61.1957788,11.9770513 61.0163413,12.3370138 C60.7803538,12.8144263 61.2534163,13.3038013 61.7754163,13.8421138 C62.6541163,14.7382138 63.4991038,15.7028263 62.8466038,17.0176138 C62.0592538,18.6053638 60.4008163,18.5238013 59.0762413,17.8669513 C57.7810288,17.2253263 56.7990163,16.0225513 57.3547288,14.9024263 L57.7995163,14.0063263 L59.3579038,14.7784513 Z M71.5014725,22.3113463 L72.2844725,21.0433213 C72.5476475,20.6224588 72.78146,20.3788588 72.78146,20.3788588 L72.7520975,20.3462338 C72.7520975,20.3462338 72.4889225,20.5593838 72.048485,20.7877588 L70.713035,21.4554838 L71.5014725,22.3113463 Z M66.6403475,20.7420838 L67.0753475,21.2140588 L73.1914475,18.4637713 L74.6943725,20.0950213 L71.4514475,25.9653463 L71.8864475,26.4362338 L70.8467975,27.3943213 L68.6435225,25.0029088 L69.6831725,24.0459088 L70.14101,24.5418088 L70.7010725,23.6250463 L69.3460475,22.1536588 L68.3868725,22.6375963 L68.8436225,23.1334963 L67.8039725,24.0915838 L65.6006975,21.7001713 L66.6403475,20.7420838 Z M74.51972,30.9476187 L74.8383575,31.7578062 L79.3427825,29.9851812 L79.024145,29.1760812 L80.4411575,28.6181937 L81.7918325,32.0492562 L80.3737325,32.6071437 L80.055095,31.7969562 L75.652895,33.5293437 L76.2651575,35.0888187 L77.3287325,34.6701312 L77.92577,36.1882813 L75.44627,37.1637687 L73.203845,31.4652687 L74.51972,30.9476187 Z M77.7721063,41.9266925 L77.7862438,42.7966925 L82.7321938,42.712955 L82.7169688,41.8440425 L84.1307187,41.8201175 L84.2307687,47.80898 L81.9372312,47.8470425 L81.9100438,46.21688 L82.6821688,46.20383 L82.6560688,44.6606675 L81.0802812,44.687855 L81.1183438,46.958555 L79.5969312,46.984655 L79.5588688,44.7128675 L77.9287063,44.740055 L77.9558938,46.4137175 L78.7280188,46.4006675 L78.7552063,48.03083 L76.4616688,48.06998 L76.3594437,41.9506175 L77.7721063,41.9266925 Z M10.2332491,55.7386925 C10.1563773,55.4734656 10.3090693,55.1961397 10.5742962,55.1192679 C10.8395232,55.0423961 11.116849,55.195088 11.1937209,55.460315 C15.5809318,70.5972841 29.5007124,81.2103788 45.50261,81.2103788 C61.0951186,81.2103788 74.7361124,71.133137 79.4680925,56.5328472 C79.5532309,56.2701571 79.8352015,56.126223 80.0978916,56.2113613 C80.3605817,56.2964996 80.5045158,56.5784702 80.4193775,56.8411603 C75.5546762,71.8509545 61.5317079,82.2103788 45.50261,82.2103788 C29.0527306,82.2103788 14.743563,71.3003972 10.2332491,55.7386925 Z"/>
  </g>
</svg>
