<svg xmlns="http://www.w3.org/2000/svg" width="90" height="90" viewBox="0 0 90 90">
  <g fill="none" fill-rule="evenodd">
    <path fill="#6D6E71" d="M45.1878524,5.77010141 C66.9401226,5.77010141 84.5749694,23.2913979 84.5749694,44.9036059 C84.5749694,66.5158139 66.9401226,84.0371104 45.1878524,84.0371104 C23.4344065,84.0371104 5.80073546,66.5158139 5.80073546,44.9036059 C5.80073546,23.2913979 23.4344065,5.77010141 45.1878524,5.77010141"/>
    <path stroke="#FFF" stroke-width="1.255" d="M45.1878524,9.85867651 C64.6674271,9.85867651 80.4598974,25.5494596 80.4598974,44.9036059 C80.4598974,64.2589204 64.6674271,79.9485353 45.1878524,79.9485353 C25.7071019,79.9485353 9.91580738,64.2589204 9.91580738,44.9036059 C9.91580738,25.5494596 25.7071019,9.85867651 45.1878524,9.85867651 Z"/>
    <path fill="#FFF" d="M31.0790344,57.2395379 C30.3265641,57.2395379 29.950329,56.678819 29.950329,56.1181001 C29.950329,55.370475 30.5146817,54.9966624 31.0790344,54.9966624 C31.8315047,54.9966624 32.2077398,55.5573813 32.2077398,56.1181001 C32.2077398,56.678819 31.6433871,57.0526316 31.0790344,57.2395379 M31.0790344,52.0061617 C28.8216235,52.0061617 26.9404478,53.8752246 26.9404478,56.1181001 C26.9404478,58.3609756 28.8216235,60.2300385 31.0790344,60.2300385 C33.3364453,60.2300385 35.217621,58.3609756 35.217621,56.1181001 C35.0295034,53.6883184 33.3364453,52.0061617 31.0790344,52.0061617 M60.9897286,57.2395379 C60.4253759,57.2395379 59.8610231,56.678819 59.8610231,56.1181001 C59.8610231,55.5573813 60.4253759,54.9966624 60.9897286,54.9966624 C61.5540813,54.9966624 62.118434,55.5573813 62.118434,56.1181001 C62.118434,56.678819 61.5540813,57.2395379 60.9897286,57.2395379 M60.9897286,52.0061617 C58.7323177,52.0061617 56.851142,53.8752246 56.851142,56.1181001 C56.851142,58.3609756 58.7323177,60.2300385 60.9897286,60.2300385 C63.2471395,60.2300385 65.1283152,58.3609756 65.1283152,56.1181001 C65.1283152,53.8752246 63.2471395,52.0061617 60.9897286,52.0061617 M64.5639625,43.0346598 C64.3758449,43.4084724 63.9996098,43.5953787 63.6233746,43.5953787 L55.5343189,43.5953787 C54.7818487,43.5953787 54.4056135,43.2215661 54.4056135,42.4739409 L54.4056135,37.98819 C54.4056135,37.4274711 54.7818487,37.0536585 55.1580838,36.8667522 L55.3462014,36.8667522 L59.484788,36.8667522 C59.8610231,36.8667522 60.2372583,37.0536585 60.6134934,37.2405648 L64.5639625,41.9132221 C64.7520801,42.2870347 64.7520801,42.8477535 64.5639625,43.0346598 M69.0787842,44.5299101 L61.5540813,35.5584082 C61.1778462,35.1845956 60.801611,34.9976893 60.2372583,34.9976893 L54.0293784,34.9976893 C52.7125553,34.9976893 52.5244378,35.1845956 52.5244378,36.4929397 L52.5244378,54.4359435 L52.5244378,54.9966624 C52.5244378,55.370475 52.9006729,55.7442875 53.2769081,55.7442875 C54.7818487,55.9311938 55.5343189,55.9311938 55.7224365,54.4359435 C56.2867892,52.193068 58.3560826,50.5109114 60.6134934,50.5109114 C63.435257,50.1370988 66.0689031,52.193068 66.6332558,54.9966624 C66.6332558,55.5573813 67.1976085,56.1181001 67.7619612,56.1181001 L68.3263139,56.1181001 C69.2669018,56.1181001 69.643137,55.7442875 69.643137,54.8097561 L69.643137,46.0251605 C69.643137,45.2775353 69.4550194,44.7168164 69.0787842,44.5299101 M50.643262,31.0726573 L50.643262,54.4359435 C50.643262,55.370475 50.2670269,55.7442875 49.326439,55.7442875 L37.6631495,55.7442875 C36.7225616,55.7442875 36.534444,55.5573813 36.1582089,54.6228498 C35.5938562,51.6323492 32.7720926,49.7632863 29.7622114,50.3240051 L29.3859762,50.3240051 C27.1285654,50.6978177 25.6236248,52.5668806 25.2473896,54.6228498 C25.2473896,55.370475 24.8711545,55.5573813 24.1186842,55.5573813 L22.0493909,55.5573813 C21.4850381,55.5573813 21.108803,55.370475 20.9206854,54.8097561 L20.9206854,30.3250321 C21.108803,29.9512195 21.4850381,29.5774069 22.0493909,29.5774069 L49.1383215,29.5774069 C50.2670269,29.7643132 50.643262,29.9512195 50.643262,31.0726573"/>
  </g>
</svg>
